<?xml version="1.0" encoding="UTF-8"?>
<!DOCTYPE svg PUBLIC "-//W3C//DTD SVG 1.1//EN" "http://www.w3.org/Graphics/SVG/1.1/DTD/svg11.dtd">
<svg version="1.1" xmlns="http://www.w3.org/2000/svg" xmlns:xlink="http://www.w3.org/1999/xlink" x="0" y="0" width="750" height="601" viewBox="0, 0, 750, 601">
  <g id="apeer1" transform="translate(-0, -0)">
    <g>
      <g opacity="0.3">
        <g>
          <path d="M595.454,453.656 C595.454,522.593 539.569,578.478 470.631,578.478 C401.694,578.478 345.809,522.593 345.809,453.656 C345.809,384.718 401.694,328.833 470.631,328.833 C539.569,328.833 595.454,384.718 595.454,453.656 z" fill="#559341"/>
          <path d="M388.137,453.656 C388.137,522.593 332.252,578.478 263.315,578.478 C194.377,578.478 138.492,522.593 138.492,453.656 C138.492,384.718 194.377,328.833 263.315,328.833 C332.252,328.833 388.137,384.718 388.137,453.656 z" fill="#DC7027"/>
          <path d="M324.645,253.663 C324.645,322.601 268.76,378.486 199.822,378.486 C130.885,378.486 75,322.601 75,253.663 C75,184.726 130.885,128.841 199.822,128.841 C268.76,128.841 324.645,184.726 324.645,253.663 z" fill="#4B85C5"/>
          <path d="M498.507,146.344 C498.507,215.282 442.622,271.167 373.684,271.167 C304.747,271.167 248.862,215.282 248.862,146.344 C248.862,77.407 304.747,21.522 373.684,21.522 C442.622,21.522 498.507,77.407 498.507,146.344 z" fill="#A22C22"/>
          <path d="M675,254.393 C675,323.331 619.115,379.215 550.178,379.215 C481.24,379.215 425.355,323.331 425.355,254.393 C425.355,185.455 481.24,129.571 550.178,129.571 C619.115,129.571 675,185.455 675,254.393 z" fill="#F1CB29"/>
        </g>
        <path d="M508.724,166.453 C519.51,166.453 528.256,174.845 528.256,185.2 L528.256,397.66 C528.256,408.015 519.51,416.409 508.724,416.409 L385.938,416.409 L238.712,466.735 L251.258,416.409 L235.288,416.409 C224.501,416.409 215.757,408.015 215.757,397.66 L215.757,185.2 C215.757,174.847 224.501,166.453 235.288,166.453 L508.724,166.453 z" fill="#FFFFFF"/>
      </g>
      <g>
        <g>
          <g>
            <path d="M525,600 C483.579,600 450,566.421 450,525 C450,483.579 483.579,450 525,450 C566.421,450 600,483.579 600,525 C600,566.421 566.421,600 525,600 z" fill="#FF9E55"/>
            <path d="M525,450 C554.778,450.151 582.287,468.084 593.915,495.585 L450.617,533.981 C449.968,527.579 450.141,530.575 450,525 C450,483.579 483.579,450 525,450 z" fill="#000000"/>
          </g>
          <g>
            <path d="M490,550 C484.477,550 480,545.523 480,540 C480,534.477 484.477,530 490,530 C495.523,530 500,534.477 500,540 C500,545.523 495.523,550 490,550 z" fill="#808080"/>
            <path d="M560,550 C554.477,550 550,545.523 550,540 C550,534.477 554.477,530 560,530 C565.523,530 570,534.477 570,540 C570,545.523 565.523,550 560,550 z" fill="#808080"/>
          </g>
          <path d="M510.5,580.5 L540.5,580.5" fill-opacity="0" stroke="#A22D22" stroke-width="10"/>
        </g>
        <g>
          <path d="M375,150 C333.579,150 300,116.421 300,75 C300,33.579 333.579,0 375,0 C416.421,0 450,33.579 450,75 C450,116.421 416.421,150 375,150 z" fill="#FF9E55" id="Face"/>
          <g id="Hair">
            <path d="M377.786,0.066 L377.867,0.073 C379.683,0.118 378.531,0.064 381.317,0.347 C383.583,0.527 382.648,0.403 384.132,0.632 C405.445,2.823 425.079,15.29 436.992,32.927 C437.446,33.554 437.246,33.251 437.603,33.831 C439.54,36.698 438.705,35.304 440.159,37.982 C440.304,38.218 440.214,38.065 440.413,38.45 C446.964,49.569 449.677,62.214 450,75 C449.859,80.575 450.032,77.579 449.383,83.981 L375.001,64.05 L300.619,83.981 C299.97,77.579 300.143,80.575 300.002,75 C299.895,62.1 303.472,49.713 309.589,38.45 C309.788,38.065 309.698,38.218 309.843,37.982 C311.298,35.304 310.463,36.698 312.4,33.831 C312.757,33.251 312.556,33.554 313.01,32.926 C324.835,15.289 344.621,2.786 365.87,0.632 C367.354,0.403 366.419,0.527 368.685,0.347 C371.471,0.064 370.319,0.118 372.135,0.073 C373.142,-0.008 372.189,0.067 375.001,0 L375.001,0 L377.786,0.066 z" fill="#000000"/>
            <path d="M320,40 C308.954,40 300,31.046 300,20 C300,8.954 308.954,0 320,0 C331.046,0 340,8.954 340,20 C340,31.046 331.046,40 320,40 z" fill="#000000"/>
            <path d="M430,40 C418.954,40 410,31.046 410,20 C410,8.954 418.954,0 430,0 C441.046,0 450,8.954 450,20 C450,31.046 441.046,40 430,40 z" fill="#000000"/>
          </g>
          <path d="M385.5,130.097 L375.5,140.097 L365.5,130.097" fill-opacity="0" stroke="#A22D22" stroke-width="5" stroke-linecap="round" stroke-linejoin="bevel" id="Lip"/>
          <g id="Eyes">
            <g>
              <path d="M335.743,116.981 C328.839,116.981 323.243,111.385 323.243,104.481 C323.243,97.578 328.839,91.981 335.743,91.981 C342.646,91.981 348.243,97.578 348.243,104.481 C348.243,111.385 342.646,116.981 335.743,116.981 z" fill="#404040"/>
              <g>
                <path d="M336.243,84.481 L336.243,94.481" fill="#404040"/>
                <path d="M336.243,84.481 L336.243,94.481" fill-opacity="0" stroke="#404040" stroke-width="5"/>
              </g>
              <g>
                <path d="M321.985,89.481 L329.056,96.552" fill="#404040"/>
                <path d="M321.985,89.481 L329.056,96.552" fill-opacity="0" stroke="#404040" stroke-width="5"/>
              </g>
              <g>
                <path d="M350.5,89.481 L343.429,96.552" fill="#404040"/>
                <path d="M350.5,89.481 L343.429,96.552" fill-opacity="0" stroke="#404040" stroke-width="5"/>
              </g>
            </g>
            <g>
              <path d="M414.258,116.981 C407.354,116.981 401.758,111.385 401.758,104.481 C401.758,97.578 407.354,91.981 414.258,91.981 C421.161,91.981 426.758,97.578 426.758,104.481 C426.758,111.385 421.161,116.981 414.258,116.981 z" fill="#404040"/>
              <g>
                <path d="M414.758,84.481 L414.758,94.481" fill="#404040"/>
                <path d="M414.758,84.481 L414.758,94.481" fill-opacity="0" stroke="#404040" stroke-width="5"/>
              </g>
              <g>
                <path d="M400.5,89.481 L407.571,96.552" fill="#404040"/>
                <path d="M400.5,89.481 L407.571,96.552" fill-opacity="0" stroke="#404040" stroke-width="5"/>
              </g>
              <g>
                <path d="M429.015,89.481 L421.944,96.552" fill="#404040"/>
                <path d="M429.015,89.481 L421.944,96.552" fill-opacity="0" stroke="#404040" stroke-width="5"/>
              </g>
            </g>
          </g>
        </g>
        <g>
          <path d="M675,375 C633.579,375 600,341.421 600,300 C600,258.579 633.579,225 675,225 C716.421,225 750,258.579 750,300 C750,341.421 716.421,375 675,375 z" fill="#FFBB88" id="Face"/>
          <g id="Hair">
            <path d="M677.786,225.066 L677.867,225.073 C679.683,225.118 678.531,225.064 681.317,225.347 C683.583,225.527 682.648,225.403 684.132,225.632 C705.445,227.823 725.079,240.29 736.992,257.927 C737.446,258.554 737.246,258.251 737.603,258.831 C739.54,261.698 738.705,260.304 740.159,262.982 C740.304,263.218 740.214,263.065 740.413,263.45 C746.964,274.569 749.677,287.214 750,300 C749.859,305.575 750.032,302.579 749.383,308.981 L675.001,289.05 L600.619,308.981 C599.97,302.579 600.143,305.575 600.002,300 C599.896,287.1 603.472,274.713 609.589,263.45 C609.788,263.065 609.698,263.218 609.843,262.982 C611.298,260.304 610.463,261.698 612.4,258.831 C612.757,258.251 612.556,258.554 613.01,257.926 C624.835,240.289 644.621,227.786 665.87,225.632 C667.354,225.403 666.419,225.527 668.685,225.347 C671.471,225.064 670.319,225.118 672.135,225.073 C673.142,224.992 672.189,225.067 675.001,225 L675.001,225 L677.786,225.066 z" fill="#FFE755"/>
            <path d="M620,265 C608.954,265 600,256.046 600,245 C600,233.954 608.954,225 620,225 C631.046,225 640,233.954 640,245 C640,256.046 631.046,265 620,265 z" fill="#FFE755"/>
            <path d="M730,265 C718.954,265 710,256.046 710,245 C710,233.954 718.954,225 730,225 C741.046,225 750,233.954 750,245 C750,256.046 741.046,265 730,265 z" fill="#FFE755"/>
          </g>
          <path d="M685.5,355.097 L675.5,365.097 L665.5,355.097" fill-opacity="0" stroke="#A22D22" stroke-width="5" stroke-linecap="round" stroke-linejoin="bevel" id="Lip"/>
          <g id="Eyes">
            <g>
              <path d="M635.743,341.981 C628.839,341.981 623.243,336.385 623.243,329.481 C623.243,322.578 628.839,316.981 635.743,316.981 C642.646,316.981 648.243,322.578 648.243,329.481 C648.243,336.385 642.646,341.981 635.743,341.981 z" fill="#003F6F"/>
              <g>
                <path d="M636.243,309.481 L636.243,319.481" fill="#003F6F"/>
                <path d="M636.243,309.481 L636.243,319.481" fill-opacity="0" stroke="#0B3F6E" stroke-width="5"/>
              </g>
              <g>
                <path d="M621.985,314.481 L629.056,321.552" fill="#003F6F"/>
                <path d="M621.985,314.481 L629.056,321.552" fill-opacity="0" stroke="#0B3F6E" stroke-width="5"/>
              </g>
              <g>
                <path d="M650.5,314.481 L643.429,321.552" fill="#003F6F"/>
                <path d="M650.5,314.481 L643.429,321.552" fill-opacity="0" stroke="#0B3F6E" stroke-width="5"/>
              </g>
            </g>
            <g>
              <path d="M714.258,341.981 C707.354,341.981 701.758,336.385 701.758,329.481 C701.758,322.578 707.354,316.981 714.258,316.981 C721.161,316.981 726.758,322.578 726.758,329.481 C726.758,336.385 721.161,341.981 714.258,341.981 z" fill="#003F6F"/>
              <g>
                <path d="M714.758,309.481 L714.758,319.481" fill="#003F6F"/>
                <path d="M714.758,309.481 L714.758,319.481" fill-opacity="0" stroke="#0B3F6E" stroke-width="5"/>
              </g>
              <g>
                <path d="M700.5,314.481 L707.571,321.552" fill="#003F6F"/>
                <path d="M700.5,314.481 L707.571,321.552" fill-opacity="0" stroke="#0B3F6E" stroke-width="5"/>
              </g>
              <g>
                <path d="M729.015,314.481 L721.944,321.552" fill="#003F6F"/>
                <path d="M729.015,314.481 L721.944,321.552" fill-opacity="0" stroke="#0B3F6E" stroke-width="5"/>
              </g>
            </g>
          </g>
        </g>
        <g>
          <path d="M225,600 C183.579,600 150,566.421 150,525 C150,483.579 183.579,450 225,450 C266.421,450 300,483.579 300,525 C300,566.421 266.421,600 225,600 z" fill="#FF9E55" id="Face"/>
          <g id="Hair">
            <path d="M227.786,450.066 L227.867,450.073 C229.683,450.118 228.531,450.064 231.317,450.347 C233.583,450.527 232.648,450.403 234.132,450.632 C255.445,452.823 275.079,465.29 286.992,482.927 C287.446,483.554 287.246,483.251 287.603,483.831 C289.54,486.698 288.705,485.304 290.159,487.982 C290.304,488.218 290.214,488.065 290.413,488.45 C296.964,499.569 299.677,512.214 300,525 C299.859,530.575 300.032,527.579 299.383,533.981 L225.001,514.05 L150.619,533.981 C149.97,527.579 150.143,530.575 150.002,525 C149.895,512.1 153.472,499.713 159.589,488.45 C159.788,488.065 159.698,488.218 159.843,487.982 C161.298,485.304 160.463,486.698 162.4,483.831 C162.757,483.251 162.556,483.554 163.01,482.926 C174.835,465.289 194.621,452.786 215.87,450.632 C217.354,450.403 216.419,450.527 218.685,450.347 C221.471,450.064 220.319,450.118 222.135,450.073 C223.142,449.992 222.189,450.067 225.001,450 L225.001,450 L227.786,450.066 z" fill="#002744"/>
            <path d="M170,490 C158.954,490 150,481.046 150,470 C150,458.954 158.954,450 170,450 C181.046,450 190,458.954 190,470 C190,481.046 181.046,490 170,490 z" fill="#002744"/>
            <path d="M280,490 C268.954,490 260,481.046 260,470 C260,458.954 268.954,450 280,450 C291.046,450 300,458.954 300,470 C300,481.046 291.046,490 280,490 z" fill="#002744"/>
          </g>
          <path d="M235.5,580.097 L225.5,590.097 L215.5,580.097" fill-opacity="0" stroke="#A22D22" stroke-width="5" stroke-linecap="round" stroke-linejoin="bevel" id="Lip"/>
          <g id="Eyes">
            <g>
              <path d="M185.743,566.981 C178.839,566.981 173.243,561.385 173.243,554.481 C173.243,547.578 178.839,541.981 185.743,541.981 C192.646,541.981 198.243,547.578 198.243,554.481 C198.243,561.385 192.646,566.981 185.743,566.981 z" fill="#000000"/>
              <g>
                <path d="M186.243,534.481 L186.243,544.481" fill="#000000"/>
                <path d="M186.243,534.481 L186.243,544.481" fill-opacity="0" stroke="#000000" stroke-width="5"/>
              </g>
              <g>
                <path d="M171.985,539.481 L179.056,546.552" fill="#000000"/>
                <path d="M171.985,539.481 L179.056,546.552" fill-opacity="0" stroke="#000000" stroke-width="5"/>
              </g>
              <g>
                <path d="M200.5,539.481 L193.429,546.552" fill="#000000"/>
                <path d="M200.5,539.481 L193.429,546.552" fill-opacity="0" stroke="#000000" stroke-width="5"/>
              </g>
            </g>
            <g>
              <path d="M264.258,566.981 C257.354,566.981 251.758,561.385 251.758,554.481 C251.758,547.578 257.354,541.981 264.258,541.981 C271.161,541.981 276.758,547.578 276.758,554.481 C276.758,561.385 271.161,566.981 264.258,566.981 z" fill="#000000"/>
              <g>
                <path d="M264.758,534.481 L264.758,544.481" fill="#000000"/>
                <path d="M264.758,534.481 L264.758,544.481" fill-opacity="0" stroke="#000000" stroke-width="5"/>
              </g>
              <g>
                <path d="M250.5,539.481 L257.571,546.552" fill="#000000"/>
                <path d="M250.5,539.481 L257.571,546.552" fill-opacity="0" stroke="#000000" stroke-width="5"/>
              </g>
              <g>
                <path d="M279.015,539.481 L271.944,546.552" fill="#000000"/>
                <path d="M279.015,539.481 L271.944,546.552" fill-opacity="0" stroke="#000000" stroke-width="5"/>
              </g>
            </g>
          </g>
        </g>
        <g>
          <g>
            <path d="M75,375 C33.579,375 0,341.421 0,300 C0,258.579 33.579,225 75,225 C116.421,225 150,258.579 150,300 C150,341.421 116.421,375 75,375 z" fill="#FF9E55"/>
            <path d="M75,225 C104.778,225.151 132.287,243.084 143.915,270.585 L0.617,308.981 C-0.032,302.579 0.141,305.575 0,300 C0,258.579 33.579,225 75,225 z" fill="#C40000"/>
          </g>
          <g>
            <path d="M40,325 C34.477,325 30,320.523 30,315 C30,309.477 34.477,305 40,305 C45.523,305 50,309.477 50,315 C50,320.523 45.523,325 40,325 z" fill="#2B2B2B"/>
            <path d="M110,325 C104.477,325 100,320.523 100,315 C100,309.477 104.477,305 110,305 C115.523,305 120,309.477 120,315 C120,320.523 115.523,325 110,325 z" fill="#2B2B2B"/>
          </g>
          <path d="M60.5,355.5 L90.5,355.5" fill-opacity="0" stroke="#A22D22" stroke-width="10"/>
        </g>
        <g>
          <g>
            <path d="M161.15,293.4 L364.85,157.6" fill-opacity="0" stroke="#000000" stroke-width="5"/>
            <path d="M155.598,301.69 C152.674,301.105 150.777,298.261 151.362,295.336 C151.947,292.412 154.792,290.515 157.716,291.1 C160.641,291.685 162.537,294.53 161.952,297.454 C161.367,300.379 158.523,302.275 155.598,301.69" fill="#000000" fill-opacity="1" stroke="#000000" stroke-width="5" stroke-opacity="1"/>
            <path d="M370.402,149.31 C373.326,149.895 375.223,152.739 374.638,155.664 C374.053,158.588 371.208,160.485 368.284,159.9 C365.359,159.315 363.463,156.47 364.048,153.546 C364.633,150.621 367.477,148.725 370.402,149.31" fill="#000000" fill-opacity="1" stroke="#000000" stroke-width="5" stroke-opacity="1"/>
          </g>
          <g>
            <path d="M163.297,300.755 L588.322,309.226" fill-opacity="0" stroke="#000000" stroke-width="5"/>
            <path d="M154.005,304.389 C151.938,302.239 152.007,298.82 154.157,296.754 C156.307,294.687 159.726,294.755 161.792,296.906 C163.859,299.056 163.79,302.475 161.64,304.541 C159.49,306.608 156.071,306.539 154.005,304.389" fill="#000000" fill-opacity="1" stroke="#000000" stroke-width="5" stroke-opacity="1"/>
            <path d="M597.614,305.592 C599.681,307.743 599.612,311.161 597.462,313.228 C595.312,315.294 591.893,315.226 589.827,313.075 C587.76,310.925 587.829,307.507 589.979,305.44 C592.129,303.374 595.548,303.442 597.614,305.592" fill="#000000" fill-opacity="1" stroke="#000000" stroke-width="5" stroke-opacity="1"/>
          </g>
          <g>
            <path d="M162.385,305.254 L513.616,445.746" fill-opacity="0" stroke="#000000" stroke-width="5"/>
            <path d="M152.407,305.375 C151.233,302.634 152.502,299.46 155.244,298.285 C157.985,297.11 161.159,298.38 162.334,301.121 C163.509,303.862 162.239,307.037 159.498,308.212 C156.757,309.386 153.582,308.117 152.407,305.375" fill="#000000" fill-opacity="1" stroke="#000000" stroke-width="5" stroke-opacity="1"/>
            <path d="M523.593,445.625 C524.768,448.366 523.498,451.54 520.756,452.715 C518.015,453.89 514.841,452.62 513.666,449.879 C512.491,447.138 513.761,443.963 516.502,442.788 C519.243,441.614 522.418,442.883 523.593,445.625" fill="#000000" fill-opacity="1" stroke="#000000" stroke-width="5" stroke-opacity="1"/>
          </g>
          <g>
            <path d="M156.224,311.949 L219.777,439.051" fill-opacity="0" stroke="#000000" stroke-width="5"/>
            <path d="M148.687,305.411 C149.63,302.582 152.688,301.053 155.517,301.996 C158.346,302.939 159.875,305.997 158.932,308.826 C157.989,311.656 154.931,313.185 152.102,312.242 C149.273,311.299 147.743,308.24 148.687,305.411" fill="#000000" fill-opacity="1" stroke="#000000" stroke-width="5" stroke-opacity="1"/>
            <path d="M227.315,445.589 C226.372,448.418 223.314,449.947 220.484,449.004 C217.655,448.061 216.126,445.003 217.069,442.174 C218.012,439.344 221.07,437.815 223.899,438.758 C226.729,439.701 228.258,442.76 227.315,445.589" fill="#000000" fill-opacity="1" stroke="#000000" stroke-width="5" stroke-opacity="1"/>
          </g>
          <g>
            <path d="M369.776,161.949 L231.226,439.051" fill-opacity="0" stroke="#000000" stroke-width="5"/>
            <path d="M370.483,151.996 C373.312,151.053 376.37,152.582 377.314,155.411 C378.257,158.24 376.728,161.299 373.898,162.242 C371.069,163.185 368.011,161.656 367.068,158.826 C366.125,155.997 367.654,152.939 370.483,151.996" fill="#000000" fill-opacity="1" stroke="#000000" stroke-width="5" stroke-opacity="1"/>
            <path d="M230.518,449.004 C227.689,449.947 224.631,448.418 223.688,445.589 C222.745,442.76 224.274,439.701 227.103,438.758 C229.932,437.815 232.99,439.344 233.933,442.174 C234.877,445.003 233.348,448.061 230.518,449.004" fill="#000000" fill-opacity="1" stroke="#000000" stroke-width="5" stroke-opacity="1"/>
          </g>
          <g>
            <path d="M381.224,161.949 L519.776,439.051" fill-opacity="0" stroke="#000000" stroke-width="5"/>
            <path d="M373.686,155.411 C374.63,152.582 377.688,151.053 380.517,151.996 C383.346,152.939 384.875,155.997 383.932,158.826 C382.989,161.656 379.931,163.185 377.102,162.242 C374.272,161.299 372.743,158.24 373.686,155.411" fill="#000000" fill-opacity="1" stroke="#000000" stroke-width="5" stroke-opacity="1"/>
            <path d="M527.314,445.589 C526.37,448.418 523.312,449.947 520.483,449.004 C517.654,448.061 516.125,445.003 517.068,442.174 C518.011,439.344 521.069,437.815 523.898,438.758 C526.728,439.702 528.257,442.76 527.314,445.589" fill="#000000" fill-opacity="1" stroke="#000000" stroke-width="5" stroke-opacity="1"/>
          </g>
          <g>
            <path d="M385.963,157.873 L590.656,302.108" fill-opacity="0" stroke="#000000" stroke-width="5"/>
            <path d="M376.228,155.684 C375.719,152.746 377.689,149.951 380.627,149.442 C383.566,148.933 386.361,150.902 386.87,153.841 C387.379,156.779 385.41,159.574 382.471,160.083 C379.532,160.592 376.738,158.623 376.228,155.684" fill="#000000" fill-opacity="1" stroke="#000000" stroke-width="5" stroke-opacity="1"/>
            <path d="M600.391,304.297 C600.9,307.236 598.93,310.03 595.992,310.54 C593.053,311.049 590.258,309.079 589.749,306.141 C589.24,303.202 591.209,300.407 594.148,299.898 C597.087,299.389 599.882,301.358 600.391,304.297" fill="#000000" fill-opacity="1" stroke="#000000" stroke-width="5" stroke-opacity="1"/>
          </g>
          <g>
            <path d="M595.07,320.762 L531.549,439.22" fill-opacity="0" stroke="#000000" stroke-width="5"/>
            <path d="M596.061,310.833 C598.916,309.971 601.93,311.587 602.792,314.442 C603.653,317.297 602.038,320.311 599.183,321.172 C596.328,322.034 593.314,320.419 592.452,317.563 C591.591,314.708 593.206,311.695 596.061,310.833" fill="#000000" fill-opacity="1" stroke="#000000" stroke-width="5" stroke-opacity="1"/>
            <path d="M530.558,449.148 C527.703,450.01 524.689,448.394 523.828,445.539 C522.966,442.684 524.581,439.671 527.436,438.809 C530.292,437.947 533.305,439.563 534.167,442.418 C535.029,445.273 533.413,448.286 530.558,449.148" fill="#000000" fill-opacity="1" stroke="#000000" stroke-width="5" stroke-opacity="1"/>
          </g>
          <g>
            <path d="M589.148,314.011 L240.257,446.036" fill-opacity="0" stroke="#000000" stroke-width="5"/>
            <path d="M596.418,307.178 C599.137,308.404 600.347,311.601 599.121,314.32 C597.895,317.039 594.697,318.249 591.978,317.023 C589.259,315.797 588.049,312.599 589.275,309.88 C590.501,307.162 593.699,305.952 596.418,307.178" fill="#000000" fill-opacity="1" stroke="#000000" stroke-width="5" stroke-opacity="1"/>
            <path d="M232.987,452.87 C230.268,451.644 229.058,448.446 230.284,445.727 C231.51,443.008 234.708,441.798 237.427,443.024 C240.145,444.25 241.355,447.448 240.129,450.167 C238.903,452.886 235.706,454.096 232.987,452.87" fill="#000000" fill-opacity="1" stroke="#000000" stroke-width="5" stroke-opacity="1"/>
          </g>
          <g>
            <path d="M512.7,450.5 L238.3,450.5" fill-opacity="0" stroke="#000000" stroke-width="5"/>
            <path d="M521.918,446.682 C524.027,448.79 524.027,452.21 521.918,454.318 C519.81,456.427 516.39,456.427 514.282,454.318 C512.173,452.21 512.173,448.79 514.282,446.682 C516.39,444.573 519.81,444.573 521.918,446.682" fill="#000000" fill-opacity="1" stroke="#000000" stroke-width="5" stroke-opacity="1"/>
            <path d="M229.082,454.318 C226.973,452.21 226.973,448.79 229.082,446.682 C231.19,444.573 234.61,444.573 236.718,446.682 C238.827,448.79 238.827,452.21 236.718,454.318 C234.61,456.427 231.19,456.427 229.082,454.318" fill="#000000" fill-opacity="1" stroke="#000000" stroke-width="5" stroke-opacity="1"/>
          </g>
        </g>
      </g>
    </g>
  </g>
</svg>
