<?xml version="1.0" encoding="UTF-8"?>
<!DOCTYPE svg PUBLIC "-//W3C//DTD SVG 1.1//EN" "http://www.w3.org/Graphics/SVG/1.1/DTD/svg11.dtd">
<svg version="1.1" xmlns="http://www.w3.org/2000/svg" xmlns:xlink="http://www.w3.org/1999/xlink" x="0" y="0" width="900" height="300" viewBox="0, 0, 900, 300">
  <g id="レイヤー_11" transform="translate(0, 0)">
    <g>
      <text transform="matrix(1, 0, 0, 1, 200, 255)">
        <tspan x="-200" y="28.5" font-family="DFGyoSho-Lt-MP-RKSJ-H" font-size="80" fill="#585858">おもてなし</tspan>
      </text>
      <text transform="matrix(1, 0, 0, 1, 700, 255)">
        <tspan x="-200" y="25" font-family="SourceHanSans-Heavy" font-size="80" fill="#585858">signage</tspan>
      </text>
      <g id="diff">
        <path d="M460,235 L470,245 L460,255 L450,245 L460,235 z" fill="#F1CC30"/>
        <path d="M440,255 L450,265 L440,275 L430,265 L440,255 z" fill="#DC702B"/>
        <path d="M460,255 L470,265 L460,275 L450,265 L460,255 z" fill="#559341"/>
        <path d="M440,235 L450,245 L440,255 L430,245 L440,235 z" fill="#4B85C5"/>
        <path d="M450,245 L460,255 L450,265 L440,255 L450,245 z" fill="#A22D22"/>
      </g>
    </g>
    <g id="equal">
      <path d="M470,120 L470,160 L455,160 L455,120 L470,120 z" fill="#585858"/>
      <path d="M445,120 L445,160 L430,160 L430,120 L445,120 z" fill="#585858"/>
    </g>
    <text transform="matrix(1, 0, 0, 1, 450, 40.5)">
      <tspan x="-237.6" y="29.5" font-family="YuGo-Bold" font-size="80" fill="#585858">おもてなーじ</tspan>
    </text>
  </g>
</svg>
