<?xml version="1.0" encoding="UTF-8"?>
<!DOCTYPE svg PUBLIC "-//W3C//DTD SVG 1.1//EN" "http://www.w3.org/Graphics/SVG/1.1/DTD/svg11.dtd">
<svg version="1.1" xmlns="http://www.w3.org/2000/svg" xmlns:xlink="http://www.w3.org/1999/xlink" x="0" y="0" width="761.674" height="549" viewBox="0, 0, 761.674, 549">
  <g id="apeer2" transform="translate(0, 0)">
    <g>
      <g>
        <path d="M325.065,330.5 L437.608,330.5 C445.19,330.5 451.337,336.626 451.337,344.183 L451.337,526.817 C451.337,534.374 445.19,540.5 437.608,540.5 L325.065,540.5 C317.483,540.5 311.337,534.374 311.337,526.817 L311.337,344.183 C311.337,336.626 317.483,330.5 325.065,330.5 z" fill-opacity="0" stroke="#808080" stroke-width="5"/>
        <g>
          <g>
            <path d="M338.837,379 C327.239,379 317.837,369.598 317.837,358 C317.837,346.402 327.239,337 338.837,337 C350.435,337 359.837,346.402 359.837,358 C359.837,369.598 350.435,379 338.837,379 z" fill="#A22D22"/>
            <path d="M360.337,379.5 L444.337,379.5" fill-opacity="0" stroke="#559341" stroke-width="5"/>
          </g>
          <g>
            <path d="M359.846,424.49 L370.342,434.986 L380.817,424.49 L391.327,435 L401.837,424.49 L391.327,413.98 L401.823,403.505 L391.327,393.009 L380.852,403.505 L370.347,393 L359.837,403.51 L370.342,414.015 z" fill="#F1CC30"/>
            <path d="M401.846,424.49 L412.342,434.986 L422.817,424.49 L433.327,435 L443.837,424.49 L433.327,413.98 L443.823,403.505 L433.327,393.009 L422.852,403.505 L412.347,393 L401.837,403.51 L412.342,414.015 z" fill="#DC702B"/>
            <path d="M317.846,424.49 L328.342,434.986 L338.817,424.49 L349.327,435 L359.837,424.49 L349.327,413.98 L359.823,403.505 L349.327,393.009 L338.852,403.505 L328.347,393 L317.837,403.51 L328.342,414.015 z" fill="#4B85C5"/>
          </g>
          <g>
            <path d="M317.837,449 L401.837,449 L401.837,491 L317.837,491 L317.837,449 z" fill="#559341"/>
            <path d="M359.837,491 L443.837,491 L443.837,533 L359.837,533 L359.837,491 z" fill="#A22D22"/>
            <path d="M401.837,449 L443.837,449 L443.837,491 L401.837,491 L401.837,449 z" fill="#4B85C5"/>
            <path d="M317.837,491 L359.837,491 L359.837,533 L317.837,533 L317.837,491 z" fill="#DC702B"/>
          </g>
        </g>
      </g>
      <g>
        <path d="M461.337,320.5 C461.337,281.84 558.877,250.5 679.199,250.5" fill-opacity="0" stroke="#555555" stroke-width="5"/>
        <path d="M405.337,320.5 C405.337,281.84 441.154,250.5 485.337,250.5" fill-opacity="0" stroke="#555555" stroke-width="5"/>
        <path d="M381.337,320.5 C381.337,281.84 392.082,250.5 405.337,250.5" fill-opacity="0" stroke="#555555" stroke-width="5"/>
        <path d="M301.337,320.5 C301.337,281.84 203.796,250.5 83.474,250.5" fill-opacity="0" stroke="#555555" stroke-width="5"/>
        <path d="M357.337,320.5 C357.337,281.84 321.52,250.5 277.337,250.5" fill-opacity="0" stroke="#555555" stroke-width="5"/>
        <path d="M381.337,320.5 C381.337,281.84 370.592,250.5 357.337,250.5" fill-opacity="0" stroke="#555555" stroke-width="5"/>
      </g>
      <g>
        <g>
          <path d="M401.724,79.905 C402.605,83.194 400.561,87.491 396.68,88.531 L411.532,143.962 C413.638,151.819 402.909,154.694 400.803,146.836 L385.951,91.406 C382.176,92.417 378.107,90.39 376.936,86.02 L368.764,55.521 C368.052,52.864 371.864,51.718 372.634,54.589 L378.677,77.142 L381.888,76.281 L385.59,75.289 L385.3,75.367 L379.211,52.641 C378.529,50.094 382.095,49.034 382.829,51.776 L388.893,74.404 L395.756,72.565 L389.666,49.84 C388.994,47.331 392.708,46.231 393.432,48.935 L401.73,79.903 z" fill="#000000"/>
          <path d="M428.953,46.985 L452.019,133.068 C454.08,140.759 443.296,143.531 441.265,135.95 L432.117,101.811 L426.388,103.346 L412.469,51.402 C409.233,39.325 425.717,34.908 428.953,46.985" fill="#000000"/>
        </g>
        <g>
          <path d="M491.485,12.982 C495.004,13.925 498.622,11.824 499.565,8.303 C500.509,4.782 498.421,1.17 494.903,0.228 C491.38,-0.716 487.755,1.362 486.811,4.885 C485.867,8.409 487.965,12.039 491.485,12.982" fill="#000000"/>
          <path d="M480.43,11.149 C480.933,10.234 480.578,9.09 479.677,8.585 L474.717,5.883 C473.775,5.388 472.635,5.708 472.15,6.63 L462.731,23.915 C462.223,24.828 462.559,25.967 463.479,26.478 L468.473,29.188 C469.362,29.69 470.526,29.356 471.011,28.434 L480.43,11.149 z" fill="#000000"/>
          <path d="M487.339,83.447 C487.329,83.486 487.3,83.517 487.295,83.536 C487.078,84.346 487.555,85.18 488.365,85.397 C489.11,85.596 489.877,85.197 490.165,84.506 L516.42,29.329 L516.451,29.215 C516.663,28.424 516.198,27.592 515.388,27.375 C514.657,27.179 513.937,27.591 513.588,28.265 L487.339,83.447 z" fill="#000000"/>
          <path d="M452.758,70.103 C452.621,70.39 452.519,70.696 452.44,70.988 C451.774,73.474 453.236,76.006 455.722,76.672 C457.758,77.217 459.84,76.323 460.87,74.619 L477.127,44.788 L475.979,78.463 C475.929,80.549 477.308,82.453 479.404,83.015 C481.89,83.681 484.422,82.219 485.088,79.733 C485.179,79.393 485.226,79.064 485.257,78.729 L486.459,33.9 L488.308,30.417 L488.188,33.515 C488.276,35.578 489.965,36.232 489.965,36.232 L499.635,41.651 C499.827,41.744 500.035,41.817 500.237,41.872 C501.937,42.327 503.68,41.342 504.135,39.644 C504.524,38.192 503.848,36.701 502.581,36.017 L494.195,31.346 L494.413,20.662 C494.745,14.755 489.354,13.45 489.354,13.45 C484.195,11.926 481.427,17.041 481.427,17.041 L452.758,70.103 z" fill="#000000"/>
        </g>
        <g>
          <path d="M85.982,162.854 L12.618,149.361 L10.967,143.2 L86.835,157.403 z" fill="#000000"/>
          <path d="M72.843,202.769 L101.32,195.138 L108.131,220.558 C109.244,224.714 113.511,227.164 117.659,226.052 C121.815,224.939 124.292,220.678 123.18,216.526 L116.368,191.106 C118.622,190.502 118.442,188.967 117.981,187.245 L112.903,168.294 L85.992,163.02 L35.412,176.573 L27.901,174.634 C25.479,173.995 23.016,175.449 22.4,177.864 C21.771,180.257 23.205,182.71 25.631,183.365 L37.514,186.514 L50.756,235.932 C51.869,240.088 56.136,242.537 60.299,241.422 C64.447,240.31 66.916,236.052 65.804,231.9 L60.601,212.546 L80.398,231.924 C83.483,234.914 88.411,234.839 91.439,231.769 C94.413,228.688 94.33,223.728 91.264,220.716 L72.843,202.769 z" fill="#000000"/>
          <path d="M86.939,157.253 L111.076,161.695 L110.008,157.709 L127.459,153.003 L130.173,137.528 L79.119,128.071 z" fill="#000000"/>
        </g>
        <g>
          <path d="M203.325,101.442 C204.8,101.442 205.984,100.25 205.984,98.779 C205.984,97.312 204.8,96.12 203.325,96.12 C201.862,96.12 200.661,97.312 200.661,98.779 C200.661,100.248 201.862,101.442 203.325,101.442 M229.682,120.612 C213.922,120.842 197.439,117.839 184.832,107.699 C184.747,107.626 184.714,107.533 184.714,107.419 C184.714,107.177 184.913,106.987 185.138,106.987 L197.572,107.003 C198.165,107.003 198.67,106.515 198.67,105.913 C198.67,105.455 198.464,105.141 197.975,104.903 L186.734,99.539 C186.527,99.406 186.386,99.174 186.386,98.899 C186.386,98.7 186.458,98.518 186.593,98.378 C186.593,98.378 200.287,86.284 229.679,86.546 L229.679,120.612 z" fill="#000000"/>
          <path d="M223.68,60.273 C213.94,60.378 204.41,64.538 193.721,73.304 C193.326,73.195 192.448,72.957 192.448,72.957 C190.751,72.957 189.369,74.331 189.369,76.024 C189.369,76.024 189.495,76.597 189.559,76.953 C189.236,77.255 180.925,85.057 180.925,85.057 L173.585,91.977 C172.885,92.604 171.999,92.919 171.066,92.88 C170.141,92.838 169.288,92.431 168.666,91.743 C168.063,91.085 167.772,90.247 167.772,89.411 C167.772,88.457 168.152,87.524 168.895,86.837 C168.895,86.837 169.454,86.53 169.874,86.29 C169.959,86.917 170.222,88.84 170.222,88.84 L176.209,81.206 L169.601,83.457 C167.854,84.064 167.142,84.933 167.12,84.972 C164.694,87.168 164.504,90.998 166.747,93.48 C168.999,95.965 172.838,96.139 175.317,93.896 L175.381,93.811 L182.341,87.182 C182.341,87.182 190.942,79.053 191.225,78.778 C191.637,78.896 192.45,79.093 192.45,79.093 C194.139,79.093 195.513,77.719 195.513,76.022 C195.513,76.022 195.428,75.577 195.372,75.254 C205.712,66.746 214.749,62.711 223.807,62.607 C225.659,62.587 227.149,62.837 229.591,63.359 L230.096,63.464 L230.096,61.039 L229.765,60.974 C227.25,60.438 225.593,60.248 223.68,60.273" fill="#000000"/>
        </g>
        <g>
          <path d="M279.496,175.949 C286.234,177.129 292.638,172.613 293.818,165.875 C294.998,159.137 290.505,152.737 283.767,151.557 C277.029,150.377 270.628,154.87 269.449,161.608 C268.269,168.346 272.758,174.769 279.496,175.949" fill="#000000"/>
          <path d="M290.823,180.999 C296.358,182.177 297.924,187.046 297.924,187.046 L311.604,214.881 C312.153,216.112 312.359,217.514 312.105,218.962 C311.433,222.803 307.777,225.369 303.937,224.697 C303.016,224.535 302.207,224.197 301.474,223.756 L291.143,218.834 L289.246,229.671 L251.546,223.071 L253.444,212.234 L242.055,213.353 C241.239,213.523 240.34,213.562 239.42,213.401 C235.579,212.729 233.024,209.075 233.696,205.234 C233.95,203.786 234.609,202.535 235.576,201.57 L257.877,180.034 C257.877,180.034 261.014,176 266.599,176.758 L290.823,180.999 z M271.72,218.778 L271.72,218.778 L286.596,216.58 L286.304,216.459 C277.09,211.906 283.097,199.74 292.312,204.293 L293.555,204.997 L296.091,190.51 L276.169,193.365 L258.391,183.909 L255.855,198.396 L257.263,198.156 C267.476,197.005 269.015,210.492 258.791,211.642 L258.464,211.654 L271.72,218.778 z" fill="#000000"/>
          <path d="M307.633,241.664 C308.599,241.833 309.496,241.203 309.665,240.237 C309.834,239.271 309.206,238.363 308.241,238.194 L232.168,224.875 C231.224,224.71 230.291,225.345 230.122,226.311 C229.953,227.276 230.617,228.18 231.56,228.345 L307.633,241.664 z" fill="#000000"/>
        </g>
        <g>
          <path d="M727.331,119.008 C732.325,127.658 731.949,137.869 727.408,146.01 L741.457,170.408 L754.549,162.849 C759.404,160.047 761.072,153.821 758.261,148.953 L705.771,58.038 C702.969,53.184 696.751,51.529 691.897,54.332 L678.931,61.855 L704.04,105.409 C713.35,105.59 722.337,110.358 727.331,119.008" fill="#000000"/>
          <path d="M718.015,69.654 L713.347,61.567 L709.891,62.315 L715.489,72.011 z" fill="#000000"/>
          <path d="M761.674,141.683 L755.457,130.916 L749.856,131.6 L758.185,146.026 z" fill="#000000"/>
          <path d="M748.58,111.287 L733.479,85.131 L722.473,84.298 L743.545,120.796 L748.58,111.287 z M737.389,106.417 L732.029,97.134 L736.513,94.546 L741.872,103.829 L737.389,106.417 z" fill="#000000"/>
          <path d="M725.792,148.611 C723.6,151.674 720.787,154.361 717.308,156.37 C704.23,163.92 687.492,159.447 679.933,146.355 C672.375,133.263 676.856,116.539 689.948,108.98 C693.427,106.971 697.153,105.866 700.923,105.504 L676.5,63.203 L640.8,83.814 C635.945,86.617 634.261,92.815 637.072,97.683 L689.562,188.598 C692.372,193.466 698.598,195.134 703.452,192.332 L739.155,171.756 L725.792,148.611 z" fill="#000000"/>
          <path d="M718.875,141.108 C719.321,140.355 719.67,139.531 719.967,138.68 C721.699,133.995 721.482,128.601 718.783,123.925 C716.083,119.25 711.534,116.357 706.624,115.506 C705.725,115.347 704.844,115.25 703.932,115.227 C700.84,115.142 697.723,115.841 694.863,117.493 C686.501,122.32 683.63,133.036 688.473,141.424 C693.293,149.772 704.003,152.665 712.378,147.83 C715.238,146.178 717.402,143.829 718.875,141.108" fill="#000000"/>
        </g>
        <g>
          <path d="M503.131,233.567 C503.12,236.015 501.094,237.973 498.673,237.962 L426.137,237.962 L426.137,240.958 L498.657,240.958 C502.743,240.98 506.083,237.697 506.105,233.589 L503.131,233.567 z" fill="#000000"/>
          <path d="M481.444,166.06 C485.467,166.06 488.727,162.789 488.727,158.769 C488.727,154.751 485.467,151.485 481.444,151.485 C477.426,151.485 474.152,154.751 474.152,158.769 C474.149,162.792 477.426,166.06 481.444,166.06" fill="#000000"/>
          <path d="M435.256,228.789 L411.01,204.469 L411.021,208.724 L433.593,231.367 C436.178,234.178 440.617,230.943 440.617,230.943 L438.494,228.652 C438.494,228.652 436.401,230.028 435.311,228.855 L435.256,228.789 z" fill="#000000"/>
          <path d="M411.222,182.925 L436.038,182.925 L436.038,185.882 L411.222,185.882 z" fill="#000000"/>
          <path d="M503.107,175.844 L505.935,177.031 L477.765,233.739 L474.645,233.739 z" fill="#000000"/>
          <path d="M456.358,171.47 L445.027,184.555 C444.355,185.395 443.328,185.899 442.194,185.899 C440.156,185.899 438.526,184.258 438.526,182.242 C438.526,181.141 438.999,180.16 439.762,179.488 L451.986,165.415 C452.657,164.608 453.668,164.093 454.803,164.093 L472.503,164.082 C473.805,164.082 474.962,164.599 475.832,165.437 L487.111,176.715 L496.462,167.372 C497.112,166.824 497.958,166.491 498.883,166.491 C500.987,166.491 502.675,168.19 502.675,170.283 C502.675,171.197 502.363,172.021 501.824,172.67 L490.545,184.04 C487.13,187.455 484.376,184.558 484.376,184.558 L477.459,177.61 L466.654,190.098 L476.556,200.011 C476.556,200.011 478.638,201.952 477.448,205.808 L471.897,230.546 C471.456,232.702 469.545,234.321 467.282,234.321 C464.68,234.321 462.565,232.207 462.565,229.599 C462.565,229.191 462.609,228.792 462.722,228.415 L467.282,208.118 L456.036,197.167 L446.349,207.961 C446.349,207.961 444.779,209.902 440.621,209.756 L420.996,209.789 C418.802,209.822 416.811,208.327 416.313,206.099 C415.732,203.566 417.307,201.077 419.851,200.518 C420.25,200.416 420.641,200.383 421.03,200.394 L437.917,200.449 L462.882,171.503 L456.358,171.47 z" fill="#000000"/>
        </g>
        <g>
          <path d="M306.766,145.772 C314.198,141.481 316.739,131.969 312.448,124.537 C308.157,117.105 298.655,114.559 291.223,118.85 C283.809,123.13 281.259,132.635 285.549,140.067 C289.84,147.499 299.353,150.052 306.766,145.772 M282.488,141.834 C277.221,132.711 280.363,121.056 289.463,115.802 C298.587,110.535 310.251,113.641 315.519,122.764 C320.792,131.897 317.646,143.547 308.523,148.814 C299.423,154.068 287.759,150.965 282.488,141.834" fill="#000000"/>
          <path d="M355.466,117.861 C362.879,113.581 365.423,104.08 361.132,96.648 C356.841,89.216 347.338,86.658 339.922,90.939 C332.49,95.23 329.94,104.748 334.231,112.179 C338.522,119.611 348.034,122.152 355.466,117.861 M331.169,113.947 C325.897,104.814 329.045,93.169 338.168,87.901 C347.259,82.653 358.929,85.746 364.2,94.877 C369.468,104 366.318,115.665 357.228,120.913 C348.104,126.181 336.437,123.07 331.169,113.947" fill="#000000"/>
          <path d="M307.954,73.633 C311.376,71.657 312.568,67.279 310.589,63.851 C308.613,60.428 304.216,59.254 300.793,61.23 C297.365,63.209 296.19,67.604 298.165,71.024 C300.145,74.454 304.526,75.612 307.954,73.633" fill="#000000"/>
          <path d="M316.91,88.548 C316.017,89.089 314.791,89.196 313.43,88.481 L305.752,84.506 L302.188,97.549 L312.244,97.16 C316.291,96.844 317.434,99.907 317.434,99.907 L327.515,117.367 C328.658,119.347 327.993,121.88 326.016,123.022 C324.031,124.168 321.506,123.473 320.364,121.496 L312.293,107.516 L294.624,107.809 C292.512,107.836 290.445,106.752 289.325,104.812 C288.553,103.475 288.343,101.957 288.647,100.562 L294.184,79.833 C294.753,77.055 297.193,76.031 297.193,76.031 C299.943,74.444 302.778,76.013 302.778,76.013 L315.76,82.753 L326.099,76.759 C329.824,74.608 332.631,79.469 328.905,81.619 L316.908,88.546 z" fill="#000000"/>
        </g>
        <path d="M535.338,187.084 L533.82,199.437 L634.974,153.692 L625.177,146.627 L620.108,148.908 L602.089,108.881 L611.99,104.424 L605.714,90.483 L598.23,93.852 L550.018,98.491 L513.789,131.865 L506.105,135.324 L512.381,149.265 L521.663,145.087 L539.682,185.114 L535.333,187.072 z M554.057,130.504 L569.683,123.469 L587.697,163.484 L572.07,170.519 L554.057,130.504 z M578.866,119.336 L592.919,113.009 L610.932,153.024 L596.879,159.35 L578.866,119.336 z M562.886,174.683 L548.858,180.998 L530.845,140.983 L544.873,134.668 L562.886,174.683 z" fill="#000000"/>
        <g>
          <path d="M191.858,141.4 L196.305,142.592 L191.776,159.495 L187.329,158.304 z" fill="#000000"/>
          <path d="M169.568,223.533 L174.015,224.725 L169.486,241.628 L165.038,240.437 z" fill="#000000"/>
          <path d="M214.461,197.067 L231.365,201.596 L230.176,206.032 L213.273,201.502 z" fill="#000000"/>
          <path d="M131.996,174.675 L148.899,179.204 L147.711,183.64 L130.807,179.11 z" fill="#000000"/>
          <path d="M159.575,164.904 L156.376,168.217 L143.795,156.071 L146.993,152.758 z" fill="#000000"/>
          <path d="M176.254,157.934 L171.854,159.291 L166.693,142.557 L171.093,141.2 z" fill="#000000"/>
          <path d="M196.494,240.506 L192.057,241.691 L187.542,224.785 L191.978,223.6 z" fill="#000000"/>
          <path d="M219.356,225.303 L216.158,228.615 L203.559,216.452 L206.757,213.139 z" fill="#000000"/>
          <path d="M155.529,213.61 L158.841,216.808 L146.678,229.407 L143.365,226.209 z" fill="#000000"/>
          <path d="M146.929,195.915 L148.255,200.312 L131.499,205.364 L130.173,200.968 z" fill="#000000"/>
          <path d="M229.343,175.755 L230.535,180.203 L213.631,184.734 L212.439,180.286 z" fill="#000000"/>
          <path d="M214.466,153.058 L217.771,156.264 L205.595,168.816 L202.29,165.609 z" fill="#000000"/>
          <path d="M153.371,184.141 C157.438,168.964 173.018,159.969 188.196,164.035 C203.349,168.096 212.344,183.676 208.277,198.853 C204.214,214.019 188.633,223.014 173.48,218.954 C158.3,214.899 149.308,199.306 153.371,184.141" fill="#000000"/>
        </g>
        <path d="M28.318,77.075 L25.782,86.541 C24.385,91.752 19.039,94.812 13.876,93.428 C8.681,92.036 5.613,86.722 7.009,81.511 L9.546,72.045 L0,69.488 L8.241,38.732 L8.25,38.7 C10.052,31.975 16.085,27.562 22.688,27.521 L40.7,4.285 C43.334,0.892 47.837,-0.805 52.235,0.373 L108.552,15.463 C112.966,16.646 116.049,20.376 116.602,24.623 L120.582,53.752 C126.301,57.077 129.331,63.935 127.529,70.66 L127.488,70.684 L119.247,101.44 L109.686,98.878 L107.197,108.356 C105.801,113.567 100.455,116.627 95.292,115.243 C90.081,113.847 86.997,108.529 88.393,103.318 L90.961,93.861 L28.318,77.075 z M24.016,57.818 C29.275,59.227 34.71,56.089 36.11,50.862 C37.528,45.571 34.373,40.2 29.114,38.79 C23.839,37.377 18.437,40.456 17.019,45.746 C15.619,50.973 18.741,56.404 24.016,57.818 M115.757,72.203 C117.175,66.913 114.036,61.545 108.761,60.132 C103.502,58.723 98.084,61.797 96.666,67.088 C95.266,72.315 98.404,77.75 103.663,79.159 C108.937,80.572 114.357,77.43 115.757,72.203 M111.3,50.718 L107.905,25.589 C107.822,24.371 106.944,23.248 105.638,22.898 L51.042,8.269 C49.783,7.931 48.461,8.465 47.748,9.47 L32.275,29.543 L111.3,50.718 z" fill="#000000"/>
        <g>
          <path d="M347.38,199.015 C350.061,199.015 352.235,196.842 352.235,194.161 C352.235,191.48 350.061,189.306 347.38,189.306 C344.699,189.306 342.526,191.48 342.526,194.161 C342.526,196.842 344.699,199.015 347.38,199.015" fill="#000000"/>
          <path d="M388.282,192.094 C390.402,192.094 392.13,193.796 392.148,195.924 L392.166,206.114 L362.042,206.114 L362.042,192.094 L388.282,192.094 z" fill="#000000"/>
          <path d="M329.673,215.957 L392.193,215.957 L392.193,209.463 L336.166,209.463 L336.166,184.897 L392.193,159.574 L392.193,152.849 L322.698,184.22 L322.698,190.954 L329.673,187.837 z" fill="#000000"/>
          <path d="M354.622,201.331 L345.911,201.331 C344.592,201.331 343.523,202.409 343.523,203.727 C343.523,205.036 344.592,206.114 345.911,206.114 L357,206.114 C358.318,206.114 359.387,205.036 359.387,203.727 L359.387,194.125 C359.387,192.807 358.318,191.738 357,191.738 C355.682,191.738 354.613,192.807 354.613,194.125 L354.622,201.331 z" fill="#000000"/>
        </g>
        <g>
          <path d="M629.628,25.21 L632.796,13.387 L631.694,13.092 C628.433,12.218 625.079,14.155 624.202,17.427 C623.329,20.687 625.265,24.041 628.526,24.915 L629.628,25.21 z" fill="#000000"/>
          <path d="M621.438,20.131 L619.042,8.421 C618.459,6.001 616.626,3.981 614.027,3.284 L602.041,0.073 C600.916,-0.229 599.78,0.437 599.481,1.551 C599.18,2.676 599.834,3.809 600.959,4.11 L612.948,7.31 C613.922,7.571 614.824,8.522 614.993,9.562 L616.526,17.024 L621.438,20.131 z" fill="#000000"/>
          <path d="M642.287,37.556 C643.732,38.428 644.484,40.171 644.027,41.877 L635.299,39.551 C623.812,36.473 611.984,43.302 608.906,54.788 L580.491,47.175 C582.963,37.951 579.063,28.512 571.489,23.547 L557.206,14.199 L560.868,10.927 C562.155,9.792 563.998,9.316 565.785,9.795 C566.191,9.904 566.556,10.026 566.886,10.189 L598.877,30.351 C599.272,30.594 599.692,30.793 600.167,30.921 C601.734,31.34 603.329,30.91 604.467,29.909 L615.475,20.572 L642.287,37.556 z" fill="#000000"/>
          <path d="M611.397,59.323 C613.498,51.48 621.554,46.849 629.386,48.947 C637.218,51.046 641.878,59.084 639.777,66.928 C637.678,74.759 629.616,79.414 621.785,77.316 C613.953,75.217 609.295,67.167 611.397,59.323 M624.175,68.443 C627.122,69.232 630.129,67.476 630.912,64.553 C631.699,61.617 629.966,58.616 627.019,57.826 C624.107,57.046 621.106,58.779 620.319,61.714 C619.536,64.638 621.262,67.662 624.175,68.443" fill="#000000"/>
          <path d="M544.99,39.925 C547.297,31.316 556.156,26.192 564.777,28.501 C573.409,30.814 578.496,39.676 576.189,48.285 C573.88,56.906 565.046,62.026 556.414,59.712 C547.796,57.391 542.683,48.535 544.99,39.925 M559.07,49.941 C562.272,50.799 565.591,48.902 566.455,45.677 C567.322,42.44 565.396,39.138 562.194,38.28 C558.957,37.413 555.662,39.315 554.794,42.553 C553.93,45.778 555.833,49.073 559.07,49.941" fill="#000000"/>
        </g>
        <path d="M268.457,63.903 L268.457,55.225 L263.757,57.952 L261.362,56.538 L261.362,53.489 L268.333,49.402 L268.333,43.698 L263.276,47.051 L263.276,41.007 L258.442,43.873 L258.442,52.074 L255.799,53.764 L253.564,52.24 L253.564,46.748 L246.229,51.018 L243.095,49.659 L243.095,46.196 L250.796,41.852 L245.98,39.363 L245.98,36.186 L248.713,34.643 L255.621,38.84 L260.419,35.984 L260.303,35.892 L255.398,32.99 L260.161,29.941 L255.38,27.084 L248.472,31.263 L245.882,29.931 L245.882,26.772 L250.555,24.063 L243.095,19.884 L243.095,16.421 L245.962,14.897 L253.324,19.278 L253.324,13.703 L255.54,12.16 L258.247,13.776 L258.229,22.125 L263.169,25.036 L263.152,19.131 L268.333,21.996 L268.333,16.293 L261.362,12.206 L261.362,9.175 L263.757,7.742 L268.457,10.47 L268.457,1.809 L271.154,0 L273.861,1.809 L273.861,10.47 L278.73,7.687 L281.178,9.359 L281.178,12.086 L273.967,16.302 L273.967,22.005 L278.908,18.901 L278.908,25.11 L283.982,22.253 L283.982,13.317 L286.43,12.132 L289.003,13.317 L289.003,19.021 L296.569,14.805 L299.213,16.477 L299.213,19.709 L291.825,24.044 L296.445,26.717 L296.445,29.812 L294.05,31.171 L286.955,26.845 L282.05,30.06 L286.795,33.109 L281.917,36.011 L286.955,38.739 L294.05,34.652 L296.329,36.324 L296.329,39.262 L291.878,41.843 L298.973,46.187 L298.973,49.595 L295.964,51.009 L289.003,46.922 L289.003,52.341 L286.501,53.773 L284.053,52.341 L284.053,44.121 L278.908,41.09 L278.908,46.793 L273.967,43.689 L273.967,49.393 L280.938,53.48 L280.938,56.712 L278.543,57.952 L273.861,55.225 L273.861,63.903 L271.154,65.694 L268.457,63.903 z M266.525,33.036 L269.045,36.875 L273.745,36.875 L275.899,33.036 L273.62,28.949 L268.929,28.949 L266.525,33.036 z" fill="#000000"/>
        <path d="M617.645,201.591 C614.065,199.507 617.19,194.094 620.882,196.227 L635.951,204.926 L660.815,191.156 L666.385,194.372 L647.353,211.375 L658.609,217.874 L665.223,215.221 L669.621,217.76 L662.971,223.908 L660.972,232.741 L656.574,230.202 L655.538,223.194 L644.282,216.695 L639.065,241.691 L633.495,238.475 L632.819,210.351 L617.645,201.591 z" fill="#000000"/>
      </g>
    </g>
  </g>
</svg>
