<?xml version="1.0" encoding="UTF-8"?>
<!DOCTYPE svg PUBLIC "-//W3C//DTD SVG 1.1//EN" "http://www.w3.org/Graphics/SVG/1.1/DTD/svg11.dtd">
<svg version="1.1" xmlns="http://www.w3.org/2000/svg" xmlns:xlink="http://www.w3.org/1999/xlink" x="0" y="0" width="752" height="405.545" viewBox="0, 0, 752, 405.545">
  <g id="appear3" transform="translate(1, 0)">
    <g>
      <g>
        <path d="M675,150 C633.579,150 600,116.421 600,75 C600,33.579 633.579,0 675,0 C716.421,0 750,33.579 750,75 C750,116.421 716.421,150 675,150 z" fill="#FF9E55" id="Face"/>
        <g id="Hair">
          <path d="M677.786,0.066 L677.867,0.073 C679.683,0.118 678.531,0.064 681.317,0.347 C683.583,0.527 682.648,0.403 684.132,0.632 C705.445,2.823 725.079,15.29 736.992,32.927 C737.446,33.554 737.246,33.251 737.603,33.831 C739.54,36.698 738.705,35.304 740.159,37.982 C740.304,38.218 740.214,38.065 740.413,38.45 C746.964,49.569 749.677,62.214 750,75 C749.859,80.575 750.032,77.579 749.383,83.981 L675.001,64.05 L600.619,83.981 C599.97,77.579 600.143,80.575 600.002,75 C599.896,62.1 603.472,49.713 609.589,38.45 C609.788,38.065 609.698,38.218 609.843,37.982 C611.298,35.304 610.463,36.698 612.4,33.831 C612.757,33.251 612.556,33.554 613.01,32.926 C624.835,15.289 644.621,2.786 665.87,0.632 C667.354,0.403 666.419,0.527 668.685,0.347 C671.471,0.064 670.319,0.118 672.135,0.073 C673.142,-0.008 672.189,0.067 675.001,0 L675.001,0 L677.786,0.066 z" fill="#000000"/>
          <path d="M620,40 C608.954,40 600,31.046 600,20 C600,8.954 608.954,0 620,0 C631.046,0 640,8.954 640,20 C640,31.046 631.046,40 620,40 z" fill="#000000"/>
          <path d="M730,40 C718.954,40 710,31.046 710,20 C710,8.954 718.954,0 730,0 C741.046,0 750,8.954 750,20 C750,31.046 741.046,40 730,40 z" fill="#000000"/>
        </g>
        <path d="M685.5,130.097 L675.5,140.097 L665.5,130.097" fill-opacity="0" stroke="#A22D22" stroke-width="5" stroke-linecap="round" stroke-linejoin="bevel" id="Lip"/>
        <g id="Eyes">
          <g>
            <path d="M635.743,116.981 C628.839,116.981 623.243,111.385 623.243,104.481 C623.243,97.578 628.839,91.981 635.743,91.981 C642.646,91.981 648.243,97.578 648.243,104.481 C648.243,111.385 642.646,116.981 635.743,116.981 z" fill="#404040"/>
            <g>
              <path d="M636.243,84.481 L636.243,94.481" fill="#404040"/>
              <path d="M636.243,84.481 L636.243,94.481" fill-opacity="0" stroke="#404040" stroke-width="5"/>
            </g>
            <g>
              <path d="M621.985,89.481 L629.056,96.552" fill="#404040"/>
              <path d="M621.985,89.481 L629.056,96.552" fill-opacity="0" stroke="#404040" stroke-width="5"/>
            </g>
            <g>
              <path d="M650.5,89.481 L643.429,96.552" fill="#404040"/>
              <path d="M650.5,89.481 L643.429,96.552" fill-opacity="0" stroke="#404040" stroke-width="5"/>
            </g>
          </g>
          <g>
            <path d="M714.258,116.981 C707.354,116.981 701.758,111.385 701.758,104.481 C701.758,97.578 707.354,91.981 714.258,91.981 C721.161,91.981 726.758,97.578 726.758,104.481 C726.758,111.385 721.161,116.981 714.258,116.981 z" fill="#404040"/>
            <g>
              <path d="M714.758,84.481 L714.758,94.481" fill="#404040"/>
              <path d="M714.758,84.481 L714.758,94.481" fill-opacity="0" stroke="#404040" stroke-width="5"/>
            </g>
            <g>
              <path d="M700.5,89.481 L707.571,96.552" fill="#404040"/>
              <path d="M700.5,89.481 L707.571,96.552" fill-opacity="0" stroke="#404040" stroke-width="5"/>
            </g>
            <g>
              <path d="M729.015,89.481 L721.944,96.552" fill="#404040"/>
              <path d="M729.015,89.481 L721.944,96.552" fill-opacity="0" stroke="#404040" stroke-width="5"/>
            </g>
          </g>
        </g>
      </g>
      <g>
        <g>
          <path d="M214.3,75.5 L536.7,75.5" fill-opacity="0" stroke="#404040" stroke-width="20"/>
          <path d="M189.718,85.682 C184.094,80.059 184.094,70.941 189.718,65.318 C195.341,59.694 204.459,59.694 210.082,65.318 C215.706,70.941 215.706,80.059 210.082,85.682 C204.459,91.306 195.341,91.306 189.718,85.682" fill="#404040" fill-opacity="1" stroke="#404040" stroke-width="20" stroke-opacity="1"/>
          <path d="M561.282,65.318 C566.906,70.941 566.906,80.059 561.282,85.682 C555.659,91.306 546.541,91.306 540.918,85.682 C535.294,80.059 535.294,70.941 540.918,65.318 C546.541,59.694 555.659,59.694 561.282,65.318" fill="#404040" fill-opacity="1" stroke="#404040" stroke-width="20" stroke-opacity="1"/>
        </g>
        <path d="M370.263,-0 C380.009,0.349 389.731,2.576 397.843,9.159 C419.399,7.715 423.523,11.739 431.588,29.173 C446.834,26.012 457.128,35.879 457.8,51.302 C474.005,55.696 478.635,70.749 472.215,86.78 C475.947,98.913 473.258,107.63 458.004,112.876 C455.112,128.417 455.112,133.111 423.924,133.965 C418.126,150.483 389.917,152.558 369.83,146.415 C359,151.887 351.607,151.217 337.456,143.561 C331.444,145.182 325.119,144.369 317.122,140.641 C307.401,146.196 292.312,144.041 287.053,144.854 C287.441,144.675 282.116,147.061 279.293,142.27 C284.002,142.803 289.279,139.005 290.787,133.68 C291.997,131.706 293.18,129.54 294.898,128.099 C289.853,123.693 287.293,116.844 286.9,109.678 C275.659,102.265 274.315,92.877 277.389,80.543 C272.971,56.667 273.679,55.048 288.163,43.419 C293.806,29.173 291.79,10.398 333.988,12.371 C341.613,5.195 351.484,1.501 361.175,0.466 C364.194,0.143 367.233,0.155 370.263,-0 z" fill="#D5D5D5"/>
      </g>
      <g>
        <path d="M9.684,200.5 L55.602,212.745 L70.908,224.99 L92.337,215.806 L92.337,228.051 L110.704,218.867 L122.949,221.929 L129.071,215.806 L147.439,221.929 L150.5,237.235 L144.378,249.48 L126.01,246.418 L132.133,258.663 L119.888,261.724 L132.133,261.724 L132.133,270.908 L89.276,249.48 L80.092,255.602 L89.276,261.724 L83.153,261.724 L83.153,277.031 L70.908,261.724 L28.051,243.357 L12.745,234.173 L0.5,209.684 L9.684,200.5 z" fill="#BBEE66"/>
        <path d="M9.684,200.5 L55.602,212.745 L70.908,224.99 L92.337,215.806 L92.337,228.051 L110.704,218.867 L122.949,221.929 L129.071,215.806 L147.439,221.929 L150.5,237.235 L144.378,249.48 L126.01,246.418 L132.133,258.663 L119.888,261.724 L132.133,261.724 L132.133,270.908 L89.276,249.48 L80.092,255.602 L89.276,261.724 L83.153,261.724 L83.153,277.031 L70.908,261.724 L28.051,243.357 L12.745,234.173 L0.5,209.684 L9.684,200.5 z" fill-opacity="0" stroke="#000000" stroke-width="1.1" stroke-linejoin="round"/>
      </g>
      <g>
        <g>
          <path d="M75,150 C33.579,150 0,116.421 0,75 C0,33.579 33.579,0 75,0 C116.421,0 150,33.579 150,75 C150,116.421 116.421,150 75,150 z" fill="#FF9E55"/>
          <path d="M75,0 C104.778,0.151 132.287,18.084 143.915,45.585 L0.617,83.981 C-0.032,77.579 0.141,80.575 0,75 C0,33.579 33.579,0 75,0 z" fill="#585858"/>
        </g>
        <g>
          <path d="M40,100 C34.477,100 30,95.523 30,90 C30,84.477 34.477,80 40,80 C45.523,80 50,84.477 50,90 C50,95.523 45.523,100 40,100 z" fill="#585858"/>
          <path d="M110,100 C104.477,100 100,95.523 100,90 C100,84.477 104.477,80 110,80 C115.523,80 120,84.477 120,90 C120,95.523 115.523,100 110,100 z" fill="#585858"/>
        </g>
        <path d="M60.5,130.5 L90.5,130.5" fill-opacity="0" stroke="#A22D22" stroke-width="10"/>
      </g>
      <g>
        <path d="M75.5,150.5 L75.5,217.7" fill-opacity="0" stroke="#2B2B2B" stroke-width="5"/>
        <path d="M75.5,217.7 L70.1,224.9 L75.5,232.1 L80.9,224.9 z" fill-opacity="0" stroke="#2B2B2B" stroke-width="5" stroke-opacity="1"/>
      </g>
      <g>
        <path d="M614.136,279.591 L619.591,268.682 L616.864,255.045 L616.864,235.955 L600.5,200.5 L622.318,227.773 L652.318,241.409 L701.409,230.5 L701.409,222.318 L750.5,255.045 L750.5,265.955 L723.227,265.955 L693.227,295.955 L687.773,355.955 L652.318,366.864 L619.591,405.045 L600.5,394.136 L614.136,388.682 L608.682,380.5 L611.409,372.318 L608.682,358.682 L614.136,345.045 L603.227,334.136 L611.409,323.227 L619.591,325.955 L619.591,315.045 L635.955,306.864 L649.591,290.5 L630.5,271.409 L616.864,282.318 z" fill="#BBEE66"/>
        <path d="M614.136,279.591 L619.591,268.682 L616.864,255.045 L616.864,235.955 L600.5,200.5 L622.318,227.773 L652.318,241.409 L701.409,230.5 L701.409,222.318 L750.5,255.045 L750.5,265.955 L723.227,265.955 L693.227,295.955 L687.773,355.955 L652.318,366.864 L619.591,405.045 L600.5,394.136 L614.136,388.682 L608.682,380.5 L611.409,372.318 L608.682,358.682 L614.136,345.045 L603.227,334.136 L611.409,323.227 L619.591,325.955 L619.591,315.045 L635.955,306.864 L649.591,290.5 L630.5,271.409 L616.864,282.318 z" fill-opacity="0" stroke="#000000" stroke-width="1.1" stroke-linejoin="round"/>
      </g>
      <g>
        <path d="M675.5,150.5 L675.5,262.7" fill-opacity="0" stroke="#2B2B2B" stroke-width="5"/>
        <path d="M675.5,262.7 L670.1,269.9 L675.5,277.1 L680.9,269.9 z" fill-opacity="0" stroke="#2B2B2B" stroke-width="5" stroke-opacity="1"/>
      </g>
    </g>
  </g>
</svg>
