<svg version="1.1" xmlns="http://www.w3.org/2000/svg" xmlns:xlink="http://www.w3.org/1999/xlink" x="0" y="0" width="128" height="128" viewBox="0, 0, 128, 128">
  <g id="Body" transform="translate(-0, -0)">
    <g id="body">
      <path d="M64,0 C99.346,0 128,28.654 128,64 C128,99.346 99.346,128 64,128 L63.998,128 L63.996,128 L61.742,127.943 L61.742,127.943 C59.637,127.89 61.05,127.952 57.514,127.593 L57.055,127.547 L57.054,127.547 C24.049,124.304 0.82,96.423 0,64 C0,28.654 28.654,0 64,0 L64,0 z M64,5.011 C31.421,5.011 5.011,31.421 5.011,64 C5.039,73.617 7.334,83.141 11.928,91.599 C12.327,86.431 14.01,81.484 15.835,76.671 L45.402,59.6 L63.718,77.916 L82.034,59.6 L111.601,76.671 C113.999,81.665 115,87.104 115.547,92.567 C120.643,83.874 122.737,73.982 122.989,64 C122.989,31.421 96.579,5.011 64,5.011 z M63.723,8.114 C75.986,8.114 85.928,19.956 85.928,34.563 C85.928,49.17 75.986,61.012 63.723,61.012 C51.46,61.012 41.518,49.17 41.518,34.563 C41.518,19.956 51.46,8.114 63.723,8.114 z" fill="#26453D"/>
    </g>
    <g id="tie">
      <path d="M70.18,63.323 L74,113.184 L64,128 L54,113.184 L57.82,63.323 z" fill="#FFFFFF"/>
    </g>
  </g>
</svg>
