<svg version="1.1" xmlns="http://www.w3.org/2000/svg" xmlns:xlink="http://www.w3.org/1999/xlink" x="0" y="0" width="128" height="128" viewBox="0, 0, 128, 128">
  <g id="Body" transform="translate(0, -0)">
    <path d="M64,0 L67.293,0.083 C102.002,2.861 127.119,29.116 128,64 C128,99.346 99.346,128 64,128 L63.997,128 L63.996,128 L61.742,127.943 L61.74,127.943 C60.146,127.903 61.049,127.951 59.034,127.747 L59.032,127.747 L57.054,127.547 L57.053,127.546 C24.049,124.304 0.819,96.421 -0,64 C-0,28.654 28.654,0 64,0 z M64,5.011 L64,5.011 C31.421,5.011 5.011,31.421 5.011,64 C5.033,73.537 7.496,82.858 11.968,91.254 C12.389,86.207 14.051,81.374 15.835,76.671 L45.402,59.6 L58.549,72.747 L55.454,113.152 L62.06,122.94 L62.061,122.94 L63.723,125.403 L71.991,113.152 L68.895,72.739 L82.034,59.6 L111.601,76.671 C113.92,81.539 114.973,86.83 115.506,92.157 C120.401,83.542 122.514,73.815 122.989,64 C122.989,31.421 96.579,5.011 64,5.011 z M63.723,8.114 C75.986,8.114 85.928,19.956 85.928,34.563 C85.928,49.17 75.986,61.012 63.723,61.012 C51.46,61.012 41.518,49.17 41.518,34.563 C41.518,19.956 51.46,8.114 63.723,8.114 z" fill="#26453D" />
  </g>
</svg>
