<svg version="1.1" xmlns="http://www.w3.org/2000/svg" xmlns:xlink="http://www.w3.org/1999/xlink" x="0" y="0" width="256" height="116.795" viewBox="0, 0, 256, 116.795">
  <g id="Logo2" transform="translate(-77.538, -132.395)">
    <g>
      <g>
        <path d="M245.516,172.428 C245.574,171.7 245.349,169.462 245.349,169.462 C247.038,169.242 248.925,169.106 250.672,169.106 C252.489,169.106 254.286,169.226 256.056,169.464 C257.052,169.597 258.042,169.768 259.021,169.974 C266.511,171.563 273.392,175.283 278.933,180.835 C286.481,188.397 290.638,198.451 290.638,209.148 C290.638,219.842 286.481,229.898 278.933,237.461 C271.383,245.024 261.347,249.19 250.672,249.19 C239.997,249.19 229.959,245.024 222.411,237.461 C214.862,229.898 210.705,219.842 210.705,209.148 C210.705,190.763 223.136,175.233 240.018,170.55 L240.155,173.324 L239.875,176.177 L239.711,176.244 C234.677,177.922 230.065,180.764 226.203,184.632 C219.665,191.18 216.068,199.887 216.068,209.148 C216.068,218.409 219.665,227.114 226.203,233.662 C232.738,240.21 241.429,243.817 250.672,243.817 C269.753,243.817 285.276,228.265 285.276,209.148 C285.276,199.887 281.676,191.18 275.141,184.632 C268.605,178.084 259.915,174.477 250.672,174.477 C248.911,174.477 247.169,174.61 245.458,174.866 C245.458,174.866 245.46,173.155 245.516,172.428" fill="#559341"/>
        <path d="M205.538,132.395 C183.5,132.395 165.572,150.357 165.572,172.435 C165.572,183.132 169.727,193.186 177.277,200.75 C183.023,206.507 190.212,210.296 198.026,211.776 C198.906,211.943 199.794,212.08 200.69,212.188 C201.586,212.296 202.489,212.373 203.396,212.422 C204.106,212.458 204.822,212.478 205.538,212.478 C216.213,212.478 226.251,208.313 233.8,200.75 C241.348,193.186 245.505,183.132 245.505,172.435 C245.505,161.741 241.348,151.685 233.8,144.122 C226.251,136.559 216.213,132.395 205.538,132.395 z M240.143,172.435 C240.143,191.553 224.62,207.106 205.538,207.106 C204.779,207.106 204.024,207.081 203.274,207.032 C202.225,206.966 201.185,206.851 200.158,206.692 C199.361,206.568 198.819,206.52 198.037,206.342 C191.755,204.908 185.738,201.628 181.069,196.951 C174.534,190.401 170.934,181.696 170.934,172.435 C170.934,163.176 174.534,154.469 181.069,147.921 C187.605,141.373 196.296,137.766 205.538,137.766 C214.781,137.766 223.472,141.373 230.007,147.921 C236.543,154.469 240.143,163.176 240.143,172.435 z" fill="#A22D22"/>
        <path d="M200.552,212.161 C199.435,211.994 198.035,211.826 198.035,211.826 C196.666,229.695 181.715,243.817 163.532,243.817 C154.291,243.817 145.6,240.21 139.064,233.662 C132.527,227.114 128.927,218.409 128.927,209.148 C128.927,199.887 132.527,191.18 139.064,184.632 C145.6,178.084 154.291,174.477 163.532,174.477 C172.776,174.477 181.467,178.084 188.001,184.632 C193.845,190.488 197.341,198.065 198.017,206.223 C198.017,206.223 198.875,206.565 200.384,206.734 C201.892,206.901 203.444,207.011 203.444,207.011 C202.928,197.118 198.837,187.892 191.795,180.835 C184.244,173.27 174.208,169.106 163.532,169.106 C141.495,169.106 123.567,187.068 123.567,209.148 C123.567,219.842 127.724,229.898 135.272,237.461 C142.821,245.024 152.857,249.19 163.532,249.19 C174.208,249.19 184.244,245.024 191.795,237.461 C198.575,230.668 202.619,221.864 203.371,212.391 C203.371,212.391 201.669,212.33 200.552,212.161" fill="#DC702B"/>
        <path d="M123.567,209.148 L123.741,206.541 C121.719,206.912 119.634,207.106 117.506,207.106 C108.263,207.106 99.573,203.499 93.037,196.951 C86.502,190.401 82.902,181.696 82.902,172.435 C82.902,163.176 86.502,154.469 93.037,147.921 C99.573,141.373 108.263,137.766 117.506,137.766 C126.749,137.766 135.438,141.373 141.975,147.921 C148.511,154.469 152.11,163.176 152.11,172.435 C152.11,187.501 142.459,200.355 129.034,205.125 L128.886,208.245 L129.034,210.799 C135.292,208.921 141.016,205.509 145.767,200.75 C153.316,193.186 157.473,183.132 157.473,172.435 C157.473,161.741 153.316,151.685 145.767,144.122 C138.217,136.559 128.181,132.395 117.506,132.395 C95.467,132.395 77.538,150.357 77.538,172.435 C77.538,183.132 81.697,193.186 89.245,200.75 C96.793,208.313 106.831,212.478 117.506,212.478 C119.62,212.478 121.707,212.316 123.756,211.996 L123.567,209.148" fill="#4B85C5"/>
        <path d="M256.651,175.058 L253.672,174.686 C254.18,184.592 258.256,193.682 265.31,200.75 C272.86,208.313 282.896,212.478 293.571,212.478 C304.247,212.478 314.284,208.313 321.832,200.75 C329.38,193.186 333.538,183.132 333.538,172.435 C333.538,161.741 329.38,151.685 321.832,144.122 C314.284,136.559 304.247,132.395 293.571,132.395 C272.606,132.395 255.36,148.652 253.73,169.242 L256.651,169.611 L259.051,169.985 C259.629,161.647 263.145,153.888 269.102,147.921 C275.639,141.373 284.328,137.766 293.571,137.766 C302.814,137.766 311.504,141.373 318.04,147.921 C324.575,154.469 328.175,163.176 328.175,172.435 C328.175,191.553 312.652,207.106 293.571,207.106 C290.66,207.106 287.803,206.748 285.053,206.054 C279.068,204.543 273.579,201.436 269.102,196.951 C263.311,191.15 259.825,183.653 259.105,175.582 L256.651,175.058" fill="#F1CC30"/>
      </g>
      <g>
        <path d="M117.505,208.064 C97.828,208.064 81.877,192.113 81.877,172.436 C81.877,152.759 97.828,136.808 117.505,136.808 C137.182,136.808 153.133,152.759 153.133,172.436 C153.133,192.113 137.182,208.064 117.505,208.064 z" fill="#4B85C5"/>
        <path d="M163.506,244.776 C143.829,244.776 127.877,228.825 127.877,209.148 C127.877,189.471 143.829,173.52 163.506,173.52 C183.182,173.52 199.134,189.471 199.134,209.148 C199.134,228.825 183.182,244.776 163.506,244.776 z" fill="#DC702B"/>
        <path d="M205.538,208.064 C185.861,208.064 169.91,192.113 169.91,172.436 C169.91,152.759 185.861,136.808 205.538,136.808 C225.215,136.808 241.167,152.759 241.167,172.436 C241.167,192.113 225.215,208.064 205.538,208.064 z" fill="#A22D22"/>
        <path d="M250.672,244.776 C230.995,244.776 215.043,228.825 215.043,209.148 C215.043,189.471 230.995,173.52 250.672,173.52 C270.349,173.52 286.3,189.471 286.3,209.148 C286.3,228.825 270.349,244.776 250.672,244.776 z" fill="#559341"/>
        <path d="M293.605,208.064 C273.928,208.064 257.977,192.113 257.977,172.436 C257.977,152.759 273.928,136.808 293.605,136.808 C313.282,136.808 329.233,152.759 329.233,172.436 C329.233,192.113 313.282,208.064 293.605,208.064 z" fill="#F1CC30"/>
      </g>
      <g>
        <path d="M123.969,165.763 C123.969,165.923 124.089,165.963 124.249,165.963 C124.409,165.963 124.609,165.843 124.889,165.763 C125.289,165.643 125.929,165.523 126.569,165.523 C128.169,165.523 129.769,166.083 130.809,167.683 C130.929,167.843 130.969,168.043 130.969,168.243 C130.969,168.483 130.809,168.643 130.689,168.763 C130.089,169.323 128.569,170.283 128.049,170.643 C127.689,170.883 127.529,170.963 127.529,171.163 C127.529,171.363 127.729,171.363 127.849,171.363 C128.049,171.363 128.249,171.283 128.809,171.163 C129.449,171.003 129.889,170.923 130.329,170.883 C130.809,170.843 131.249,170.843 131.569,170.843 C132.129,170.843 132.409,171.083 132.769,171.363 C133.209,171.643 133.569,171.723 133.969,171.723 C134.889,171.723 135.489,171.043 135.489,169.883 C135.489,168.323 134.809,166.883 133.569,165.803 C132.289,164.683 130.329,163.883 128.249,163.883 C126.809,163.883 125.249,164.363 124.289,165.203 C124.089,165.363 123.969,165.523 123.969,165.763 z M114.489,175.643 C114.449,173.483 114.449,170.443 114.449,168.603 C115.729,168.283 117.009,167.843 117.969,167.483 C118.849,167.123 120.129,166.523 120.609,166.203 C121.569,165.563 121.689,165.283 121.689,164.603 C121.689,163.923 120.929,163.283 119.289,163.283 C118.409,163.283 117.689,163.683 117.369,163.963 C116.849,164.443 116.049,164.963 114.609,165.603 C114.649,164.483 114.689,163.163 115.049,162.403 C115.289,161.923 115.489,161.843 115.649,161.603 C115.849,161.323 116.009,161.043 116.009,160.523 C116.009,159.963 115.449,159.163 114.289,158.323 C113.209,157.563 112.249,157.283 111.449,157.283 C110.809,157.283 110.089,157.683 109.689,157.923 C109.209,158.203 109.049,158.683 109.049,158.883 C109.049,159.083 109.369,159.203 109.969,159.203 C110.169,159.203 110.529,159.243 111.009,159.403 C111.409,159.523 111.649,159.683 111.729,160.323 C111.849,160.563 111.889,161.003 111.889,162.243 C111.889,163.683 111.889,165.123 111.889,166.563 C109.289,167.123 108.169,167.243 106.969,167.243 C105.649,167.243 104.569,166.603 103.929,165.803 C103.609,165.403 103.409,165.123 103.169,165.123 C102.889,165.123 102.889,165.323 102.889,165.643 C102.889,166.043 103.129,166.763 103.769,167.603 C104.769,168.963 106.049,169.803 107.529,169.803 C108.769,169.803 110.329,169.523 111.849,169.283 C111.889,171.403 111.889,174.043 111.929,176.923 C110.609,177.723 108.769,178.843 107.369,179.643 C105.769,180.523 103.849,181.523 103.209,181.603 C102.809,181.643 102.689,181.603 102.529,181.443 C102.369,181.243 102.249,180.963 102.089,180.483 C102.009,180.243 101.929,180.163 101.769,180.163 C101.489,180.163 100.689,181.083 100.689,182.243 C100.689,183.163 101.369,184.243 102.449,184.883 C102.969,185.203 103.609,185.483 104.209,185.483 C104.729,185.483 105.209,185.363 105.809,184.723 C106.169,184.323 106.529,183.923 107.649,183.003 C109.849,185.043 110.729,185.923 111.249,188.083 C111.489,189.043 111.929,189.403 112.609,189.403 C113.329,189.403 114.009,188.963 114.569,187.523 C114.849,186.723 114.889,186.003 114.889,184.963 C114.889,184.203 114.849,183.723 114.809,183.003 C114.729,181.563 114.649,180.123 114.569,177.763 C115.369,177.283 116.209,176.763 117.169,176.243 C119.009,175.243 120.969,174.323 123.009,174.323 C124.009,174.323 125.089,174.443 126.209,175.083 C127.569,175.883 128.129,177.283 128.129,178.723 C128.129,180.083 127.889,181.323 126.969,182.243 C126.209,183.003 124.609,183.563 123.049,183.563 C121.089,183.563 118.649,182.763 116.809,180.723 C116.649,180.523 116.529,180.443 116.289,180.443 C116.169,180.443 116.049,180.523 116.049,180.643 C116.049,180.923 116.689,181.923 117.249,182.723 C118.929,185.083 121.449,186.283 124.329,186.283 C126.369,186.283 127.889,185.803 129.369,184.723 C130.849,183.643 131.969,182.083 131.969,179.683 C131.969,177.563 130.769,175.523 128.849,174.323 C127.329,173.363 125.769,172.883 123.689,172.883 C120.529,172.883 117.609,173.923 114.489,175.643 z M111.969,179.403 C112.009,180.683 112.009,182.163 112.009,183.323 C112.009,183.723 111.849,183.883 111.609,183.883 C111.409,183.883 110.889,183.763 110.289,183.443 C109.609,183.083 109.129,182.843 108.329,182.363 C109.329,181.443 110.769,180.323 111.969,179.403 z" fill="#FFFFFF"/>
        <path d="M159.929,216.794 C160.929,216.834 161.969,216.754 163.009,216.634 C163.929,216.474 164.569,215.874 164.569,215.234 C164.569,214.634 164.449,214.274 163.929,213.834 C163.529,213.514 162.889,213.354 162.449,213.314 C161.689,213.274 161.209,213.354 160.409,213.274 C161.689,206.394 162.369,202.994 163.569,199.274 C163.849,198.394 164.089,198.074 164.329,197.914 C164.689,197.674 165.009,197.274 165.009,196.674 C165.009,196.114 164.729,195.474 163.889,194.794 C162.529,193.714 160.769,192.874 159.969,192.874 C159.409,192.874 158.969,192.914 158.569,193.154 C158.249,193.354 158.049,193.554 158.049,193.754 C158.049,193.914 158.209,193.994 158.609,194.234 C159.849,194.954 160.329,195.274 160.289,196.514 C160.249,197.834 159.929,199.514 159.449,202.714 C159.089,202.474 158.729,202.274 157.849,202.154 C157.529,202.114 156.769,202.114 155.929,201.954 C153.129,201.394 151.889,200.554 151.409,199.794 C151.129,199.354 151.049,199.194 150.849,199.194 C150.649,199.194 150.569,199.434 150.569,199.874 C150.569,200.794 151.009,201.714 151.809,202.554 C152.649,203.554 154.529,204.514 155.729,204.834 C153.689,206.714 152.209,208.314 152.209,210.554 C152.209,212.594 153.089,213.514 153.809,214.234 C154.689,215.114 156.329,215.874 157.609,216.234 C157.529,217.234 157.489,218.074 157.489,218.914 C157.489,223.394 159.809,226.754 165.009,226.754 C167.609,226.754 170.689,225.794 172.409,224.114 C174.129,222.434 174.769,220.434 174.769,218.074 C174.769,215.434 173.409,213.114 171.729,211.274 C170.329,209.754 167.929,208.314 165.929,207.594 C165.689,207.514 165.529,207.434 165.329,207.434 C165.129,207.434 165.009,207.514 165.009,207.714 C165.009,207.914 165.129,208.074 165.409,208.274 C166.609,209.154 168.129,210.354 169.169,211.914 C170.169,213.434 170.969,215.594 170.969,217.834 C170.969,220.074 170.369,221.794 169.329,222.874 C168.089,224.154 166.609,224.794 164.409,224.794 C160.809,224.794 159.769,222.314 159.769,220.034 C159.769,218.994 159.809,218.034 159.929,216.794 z M159.049,205.514 C158.689,207.874 158.369,210.274 158.009,213.074 C154.489,212.674 153.449,211.514 153.449,209.994 C153.449,209.034 153.929,208.354 154.809,207.474 C155.289,206.994 156.009,206.514 156.809,206.114 C157.489,205.794 157.769,205.714 158.249,205.634 C158.609,205.594 158.809,205.554 159.049,205.514 z" fill="#FFFFFF"/>
        <path d="M208.081,161.751 C205.721,163.431 203.521,165.631 202.521,167.591 C201.521,169.551 200.961,171.711 200.961,174.311 C200.961,178.911 204.121,182.231 206.841,183.511 C209.201,184.631 212.121,185.391 214.601,185.391 C216.481,185.391 217.201,184.551 217.201,183.471 C217.201,182.551 216.601,181.911 215.641,181.431 C214.841,180.991 213.841,180.951 212.561,180.871 C210.281,180.711 208.161,180.151 206.161,178.791 C204.241,177.471 203.241,175.231 203.241,172.831 C203.241,169.711 204.161,167.271 206.121,165.071 C208.641,162.311 211.561,161.071 215.281,160.751 C217.521,160.551 218.401,160.631 219.241,160.551 C220.361,160.511 220.721,159.911 220.721,159.111 C220.721,158.271 220.121,157.871 219.441,157.551 C218.121,156.991 216.641,156.911 215.761,156.911 C215.001,156.951 214.761,156.991 214.241,157.271 C213.801,157.471 213.041,157.791 212.041,158.031 C209.001,158.911 205.001,159.991 199.881,161.191 C195.921,162.151 193.801,162.471 193.201,162.511 C192.001,162.551 191.681,162.391 190.281,160.951 C189.921,160.511 189.801,160.551 189.641,160.551 C189.401,160.551 189.241,161.151 189.241,161.791 C189.241,162.911 190.081,163.911 190.721,164.671 C192.041,166.151 192.961,166.671 193.761,166.631 C194.201,166.631 194.561,166.511 194.921,166.191 C195.441,165.751 195.921,165.511 196.441,165.271 C198.601,164.351 202.441,163.031 208.081,161.551 z" fill="#FFFFFF"/>
        <path d="M259.375,206.514 C256.735,207.114 254.055,208.594 254.055,212.034 C254.055,213.754 254.175,215.874 254.335,217.994 C253.415,217.834 252.095,217.794 251.455,217.794 C249.855,217.794 248.095,218.194 246.655,219.234 C245.735,219.914 244.975,221.114 244.975,222.554 C244.975,223.754 245.615,224.834 246.575,225.594 C247.535,226.394 249.135,227.114 251.135,227.114 C253.055,227.114 254.535,226.834 255.775,225.994 C257.095,225.154 257.815,223.474 257.775,221.594 C259.775,222.674 260.975,223.874 261.535,224.394 C262.495,225.314 263.295,225.554 263.855,225.514 C265.055,225.434 265.415,224.594 265.415,223.754 C265.415,222.194 263.775,220.554 257.615,218.474 C256.575,214.794 256.255,212.034 256.255,211.034 C256.255,209.634 256.695,208.834 257.735,208.234 C258.295,207.874 258.735,207.714 259.535,207.714 C260.295,207.714 261.135,207.874 262.655,209.114 C263.015,209.394 263.735,209.754 264.215,209.754 C265.215,209.754 265.615,209.114 265.615,208.194 C265.615,207.354 265.175,206.434 263.775,205.594 C261.935,204.474 259.255,203.834 257.015,203.834 C255.735,203.834 254.175,203.994 252.855,204.634 C252.575,204.754 252.375,204.914 252.375,205.154 C252.375,205.354 252.535,205.434 252.775,205.434 C252.975,205.434 253.215,205.394 253.535,205.354 C253.975,205.314 254.775,205.274 255.415,205.314 C256.695,205.394 258.135,205.714 259.375,206.514 z M254.535,220.514 C254.575,220.714 254.575,220.914 254.575,221.074 C254.575,222.194 254.335,222.994 253.695,223.674 C253.015,224.354 251.615,224.634 250.335,224.634 C249.215,224.634 248.175,224.394 247.495,223.994 C246.895,223.594 246.495,222.954 246.495,222.154 C246.495,221.554 246.895,220.874 247.495,220.474 C248.215,219.994 249.495,219.834 250.935,219.834 C251.975,219.834 253.015,219.994 254.535,220.514 z M252.255,199.034 C251.855,199.034 251.255,199.154 250.575,199.554 C249.855,199.994 249.295,200.314 247.935,200.754 C248.975,198.194 249.375,197.514 249.935,197.074 C250.295,196.794 250.455,196.474 250.455,196.034 C250.455,195.554 250.415,195.114 249.575,194.554 C248.575,193.874 246.775,193.234 245.575,193.234 C244.855,193.234 244.335,193.354 243.815,193.634 C243.575,193.754 243.415,193.994 243.415,194.154 C243.415,194.314 243.535,194.434 243.735,194.514 C245.855,195.314 246.135,195.554 246.135,196.514 C246.135,197.394 245.895,198.674 244.815,201.554 C242.735,201.994 240.735,202.314 239.415,202.314 C238.935,202.314 238.335,202.314 237.455,202.114 C236.815,201.954 236.255,201.634 235.655,201.154 C235.415,200.954 235.335,200.914 235.215,200.914 C235.135,200.914 234.935,200.954 234.935,201.154 C234.935,201.354 234.975,201.554 235.095,201.834 C235.655,203.074 236.495,203.874 237.455,204.394 C238.135,204.794 238.975,204.914 240.055,204.914 C240.975,204.914 242.735,204.674 243.695,204.554 C241.575,209.394 239.375,213.154 237.095,216.714 C236.495,217.634 235.775,218.674 235.775,219.354 C235.775,220.074 236.095,220.394 236.335,220.634 C236.575,220.914 236.975,221.154 237.575,221.154 C237.855,221.154 238.335,221.034 238.615,220.834 C239.055,220.474 239.495,219.794 240.215,218.314 C242.135,214.274 244.415,209.114 246.655,203.874 C249.175,203.274 251.295,202.794 252.575,202.354 C253.775,201.914 254.255,201.394 254.255,200.474 C254.255,199.914 253.535,199.114 252.255,199.034 z" fill="#FFFFFF"/>
        <path d="M289.228,163.163 C289.468,162.843 289.788,162.523 289.788,161.803 C289.788,161.163 289.428,160.443 288.628,159.763 C287.148,158.483 285.828,157.963 284.788,157.963 C284.348,157.963 283.468,158.083 282.948,158.323 C282.548,158.523 282.268,158.683 282.268,159.043 C282.268,159.283 282.388,159.323 283.508,159.723 C284.788,160.243 285.068,160.883 285.028,162.363 C284.868,168.443 284.588,175.003 284.428,181.683 C284.308,186.603 286.868,189.483 291.068,189.483 C296.108,189.483 299.188,187.923 301.748,186.243 C304.588,184.363 306.948,181.963 308.708,179.123 C308.948,178.723 309.228,178.203 309.228,178.003 C309.228,177.723 309.028,177.603 308.828,177.603 C308.588,177.603 308.348,177.843 308.108,178.123 C305.908,180.683 303.228,182.443 301.108,183.523 C298.108,185.083 295.028,185.963 292.388,185.963 C290.588,185.963 289.188,185.603 288.548,185.043 C287.948,184.483 287.628,183.323 287.628,181.243 C287.628,178.723 287.788,175.083 288.108,170.883 C288.388,166.563 288.588,164.483 288.788,163.843 C288.868,163.523 289.068,163.403 289.228,163.163 z" fill="#FFFFFF"/>
      </g>
    </g>
  </g>
</svg>
