<svg version="1.1" xmlns="http://www.w3.org/2000/svg" xmlns:xlink="http://www.w3.org/1999/xlink" x="0" y="0" width="32.579" height="31.775" viewBox="0, 0, 32.579, 31.775">
<g id="Layer_1" transform="translate(-136.32, -107.441)">
<path d="M152.608,107.441 C143.613,107.441 136.32,114.734 136.32,123.731 C136.32,130.928 140.987,137.033 147.46,139.188 C148.275,139.337 148.572,138.834 148.572,138.402 C148.572,138.016 148.558,136.991 148.55,135.632 C144.019,136.616 143.063,133.448 143.063,133.448 C142.322,131.567 141.254,131.066 141.254,131.066 C139.775,130.055 141.366,130.075 141.366,130.075 C143.001,130.191 143.861,131.754 143.861,131.754 C145.314,134.243 147.674,133.524 148.602,133.108 C148.75,132.055 149.17,131.337 149.636,130.93 C146.019,130.519 142.216,129.121 142.216,122.879 C142.216,121.101 142.851,119.647 143.893,118.508 C143.725,118.096 143.166,116.44 144.052,114.197 C144.052,114.197 145.42,113.759 148.532,115.867 C149.831,115.506 151.225,115.325 152.61,115.319 C153.993,115.325 155.387,115.506 156.688,115.867 C159.798,113.759 161.163,114.197 161.163,114.197 C162.052,116.44 161.493,118.096 161.325,118.508 C162.369,119.647 163,121.101 163,122.879 C163,129.137 159.191,130.514 155.562,130.917 C156.147,131.42 156.668,132.414 156.668,133.934 C156.668,136.111 156.648,137.868 156.648,138.402 C156.648,138.838 156.941,139.345 157.768,139.186 C164.236,137.027 168.899,130.926 168.899,123.731 C168.899,114.734 161.605,107.441 152.608,107.441" fill="#161615"/>
</g>
</svg>
