<svg version="1.1" xmlns="http://www.w3.org/2000/svg" xmlns:xlink="http://www.w3.org/1999/xlink" x="0" y="0" width="128" height="128" viewBox="0, 0, 128, 128">
  <g id="ope_ico" transform="translate(-138.647, -124.647)">
    <g id="nottie" fill="#26453D">
      <path d="M202.647,124.647 C237.994,124.647 266.647,153.301 266.647,188.647 C266.647,223.994 237.994,252.647 202.647,252.647 C167.301,252.647 138.647,223.994 138.647,188.647 C138.647,153.301 167.301,124.647 202.647,124.647 z M202.647,129.658 C170.069,129.658 143.658,156.069 143.658,188.647 C143.658,221.226 170.069,247.637 202.647,247.637 C235.226,247.637 261.637,221.226 261.637,188.647 C261.637,156.069 235.226,129.658 202.647,129.658 z"/>
      <path d="M220.681,184.247 L250.249,201.318 C253.237,207.752 254.325,214.79 254.503,221.824 L254.489,222.239 C243.812,241.799 224.402,251.451 202.643,252.647 L200.39,252.59 L197.679,252.394 L195.702,252.194 C176.34,249.876 159.757,238.057 150.24,221.218 C150.165,214.328 151.964,207.669 154.482,201.318 L184.049,184.247 L202.365,202.563 L220.681,184.247 z"/>
      <path d="M202.37,185.659 C190.107,185.659 180.166,173.818 180.166,159.21 C180.166,144.603 190.107,132.762 202.37,132.762 C214.634,132.762 224.575,144.603 224.575,159.21 C224.575,173.818 214.634,185.659 202.37,185.659 z"/>
    </g>
    <path id="tie" d="M207.48,196.573 L210.638,237.8 L202.37,250.05 L194.101,237.8 L197.26,196.573 z" fill="white"/>
  </g>
</svg>
