<?xml version="1.0" encoding="UTF-8"?>
<!DOCTYPE svg PUBLIC "-//W3C//DTD SVG 1.1//EN" "http://www.w3.org/Graphics/SVG/1.1/DTD/svg11.dtd">
<svg version="1.1" xmlns="http://www.w3.org/2000/svg" xmlns:xlink="http://www.w3.org/1999/xlink" x="0" y="0" width="20" height="64.677" viewBox="0, 0, 20, 64.677">
  <g  transform="translate(-54, -63.323)">
    <g id="br">
      <path d="M57.82,63.323 L70.18,63.323 L74,113.184 L64,128 L64,128 L54,113.184 L57.82,63.323 z" fill="#229E45"/>
      <path d="M63.949,70.434 L72.403,95.696 L64,120.889 L55.519,95.756 L63.949,70.434 z" fill="#F8E509"/>
      <g>
        <path d="M67.662,95.662 C67.662,86.607 66.07,79.266 64.107,79.266 C62.143,79.266 60.552,86.607 60.552,95.662 C60.55,101.526 61.227,106.949 62.327,109.884 C63.428,112.819 64.785,112.819 65.886,109.884 C66.987,106.949 67.664,101.526 67.662,95.662 L64.107,95.662 z" fill="#2B49A3" id="path557"/>
        <path d="M62.938,105.483 L62.828,105.189 L62.714,105.45 L62.739,104.865 L62.651,104.436 L62.777,104.368 L62.837,103.842 L62.889,104.385 L63.014,104.489 L62.92,104.892 L62.938,105.483 z" fill="#FFFFEF" id="polygon559"/>
        <path d="M65.32,108.269 L65.21,107.975 L65.096,108.236 L65.122,107.651 L65.034,107.222 L65.16,107.155 L65.219,106.628 L65.272,107.171 L65.396,107.275 L65.303,107.678 L65.32,108.269 z" fill="#FFFFEF" id="polygon560"/>
        <path d="M64.294,103.818 L64.199,103.564 L64.1,103.79 L64.122,103.285 L64.046,102.914 L64.155,102.856 L64.206,102.401 L64.252,102.87 L64.359,102.96 L64.279,103.308 L64.294,103.818 z" fill="#FFFFEF" id="polygon561"/>
        <path d="M66.7,102.217 L66.606,101.968 L66.51,102.189 L66.531,101.693 L66.457,101.329 L66.563,101.272 L66.614,100.825 L66.658,101.286 L66.764,101.374 L66.685,101.716 L66.7,102.217 z" fill="#FFFFEF" id="polygon562"/>
        <path d="M64.25,98.885 L64.14,98.591 L64.026,98.852 L64.051,98.268 L63.963,97.838 L64.089,97.771 L64.149,97.245 L64.201,97.787 L64.326,97.891 L64.233,98.294 L64.25,98.885 z" fill="#FFFFEF" id="polygon563"/>
        <path d="M61.317,93.797 L61.207,93.503 L61.093,93.764 L61.118,93.18 L61.03,92.751 L61.156,92.683 L61.215,92.157 L61.268,92.7 L61.393,92.804 L61.299,93.207 L61.317,93.797 z" fill="#FFFFEF" id="polygon564"/>
        <path d="M61.669,100.564 L61.559,100.27 L61.445,100.531 L61.471,99.947 L61.383,99.518 L61.509,99.45 L61.568,98.924 L61.621,99.467 L61.745,99.571 L61.652,99.974 L61.669,100.564 z" fill="#FFFFEF" id="polygon565"/>
        <path d="M65.33,91.306 L65.233,91.047 L65.132,91.277 L65.154,90.761 L65.077,90.381 L65.188,90.322 L65.241,89.857 L65.287,90.336 L65.397,90.428 L65.315,90.784 L65.33,91.306 z" fill="#FFFFEF" id="polygon566"/>
        <path d="M65.129,95.709 L65.052,95.504 L64.973,95.686 L64.991,95.279 L64.929,94.98 L65.017,94.934 L65.058,94.567 L65.095,94.945 L65.182,95.017 L65.117,95.298 L65.129,95.709 z" fill="#FFFFEF" id="polygon567"/>
        <path d="M61.153,101.79 L61.079,101.594 L61.003,101.768 L61.02,101.378 L60.962,101.091 L61.046,101.046 L61.085,100.695 L61.12,101.057 L61.204,101.127 L61.141,101.396 L61.153,101.79 z" fill="#FFFFEF" id="polygon568"/>
        <path d="M66.72,103.35 L66.66,103.203 L66.598,103.333 L66.612,103.041 L66.564,102.827 L66.633,102.793 L66.665,102.53 L66.694,102.801 L66.761,102.853 L66.711,103.055 L66.72,103.35 z" fill="#FFFFEF" id="polygon569"/>
        <path d="M61.153,101.79 L61.079,101.594 L61.003,101.768 L61.02,101.378 L60.962,101.091 L61.046,101.046 L61.085,100.695 L61.12,101.057 L61.204,101.127 L61.141,101.396 L61.153,101.79 z" fill="#FFFFEF" id="polygon570"/>
        <path d="M61.153,101.79 L61.079,101.594 L61.003,101.768 L61.02,101.378 L60.962,101.091 L61.046,101.046 L61.085,100.695 L61.12,101.057 L61.204,101.127 L61.141,101.396 L61.153,101.79 z" fill="#FFFFEF" id="polygon571"/>
        <path d="M62.32,101.79 L62.247,101.594 L62.171,101.768 L62.188,101.378 L62.129,101.091 L62.213,101.046 L62.253,100.695 L62.288,101.057 L62.371,101.127 L62.309,101.396 L62.32,101.79 z" fill="#FFFFEF" id="polygon572"/>
        <path d="M62.175,103.584 L62.102,103.387 L62.026,103.562 L62.043,103.172 L61.984,102.885 L62.068,102.84 L62.108,102.489 L62.143,102.851 L62.226,102.92 L62.164,103.189 L62.175,103.584 z" fill="#FFFFEF" id="polygon573"/>
        <path d="M64.599,100.317 L64.526,100.121 L64.45,100.295 L64.467,99.905 L64.408,99.619 L64.492,99.574 L64.532,99.222 L64.567,99.585 L64.65,99.654 L64.587,99.923 L64.599,100.317 z" fill="#FFFFEF" id="polygon574"/>
        <path d="M63.888,100.317 L63.814,100.12 L63.738,100.295 L63.755,99.904 L63.697,99.618 L63.781,99.573 L63.82,99.221 L63.855,99.584 L63.939,99.653 L63.876,99.922 L63.888,100.317 z" fill="#FFFFEF" id="polygon575"/>
        <path d="M61.959,99.172 L61.913,99.049 L61.865,99.158 L61.876,98.913 L61.839,98.734 L61.892,98.706 L61.916,98.485 L61.938,98.712 L61.991,98.756 L61.951,98.925 L61.959,99.172 z" fill="#FFFFEF" id="polygon576"/>
        <path d="M66.629,104.769 L66.556,104.572 L66.48,104.747 L66.497,104.356 L66.438,104.07 L66.522,104.025 L66.562,103.673 L66.597,104.036 L66.68,104.105 L66.618,104.374 L66.629,104.769 z" fill="#FFFFEF" id="polygon577"/>
        <path d="M66.037,105.127 L65.976,104.964 L65.913,105.109 L65.927,104.785 L65.879,104.547 L65.948,104.51 L65.981,104.218 L66.01,104.519 L66.079,104.576 L66.028,104.8 L66.037,105.127 z" fill="#FFFFEF" id="polygon578"/>
        <path d="M66.317,105.096 L66.26,104.945 L66.201,105.079 L66.214,104.778 L66.169,104.556 L66.234,104.522 L66.264,104.25 L66.291,104.53 L66.356,104.584 L66.308,104.792 L66.317,105.096 z" fill="#FFFFEF" id="polygon579"/>
        <path d="M67.119,101.861 L67.064,101.715 L67.008,101.845 L67.02,101.555 L66.977,101.342 L67.039,101.308 L67.069,101.047 L67.095,101.316 L67.157,101.368 L67.11,101.568 L67.119,101.861 z" fill="#FFFFEF" id="polygon580"/>
        <path d="M66.03,106.952 L65.959,106.772 L65.885,106.932 L65.901,106.574 L65.844,106.311 L65.926,106.27 L65.965,105.947 L65.999,106.28 L66.079,106.343 L66.019,106.59 L66.03,106.952 z" fill="#FFFFEF" id="polygon581"/>
        <path d="M66.034,108.426 L65.969,108.246 L65.902,108.405 L65.917,108.047 L65.865,107.784 L65.939,107.743 L65.975,107.42 L66.006,107.753 L66.079,107.817 L66.024,108.064 L66.034,108.426 z" fill="#FFFFEF" id="polygon582"/>
        <path d="M65.496,105.096 L65.442,104.95 L65.385,105.079 L65.398,104.789 L65.354,104.576 L65.417,104.543 L65.446,104.282 L65.472,104.551 L65.534,104.603 L65.488,104.803 L65.496,105.096 z" fill="#FFFFEF" id="polygon583"/>
        <path d="M64.992,105.096 L64.937,104.95 L64.881,105.079 L64.893,104.789 L64.85,104.576 L64.912,104.543 L64.942,104.282 L64.968,104.551 L65.03,104.603 L64.983,104.803 L64.992,105.096 z" fill="#FFFFEF" id="polygon584"/>
        <path d="M64.136,101.637 L64.081,101.491 L64.025,101.621 L64.037,101.331 L63.994,101.118 L64.056,101.084 L64.086,100.823 L64.112,101.092 L64.173,101.144 L64.127,101.344 L64.136,101.637 z" fill="#FFFFEF" id="polygon585"/>
        <path d="M64.231,108.686 L64.185,108.563 L64.137,108.672 L64.148,108.427 L64.111,108.246 L64.164,108.218 L64.189,107.997 L64.211,108.225 L64.263,108.269 L64.224,108.438 L64.231,108.686 z" fill="#FFFFEF" id="polygon586"/>
        <path d="M62.938,97.284 L62.828,96.99 L62.714,97.251 L62.739,96.666 L62.651,96.237 L62.777,96.17 L62.837,95.643 L62.889,96.186 L63.014,96.29 L62.92,96.693 L62.938,97.284 z" fill="#FFFFEF" id="polygon587"/>
        <path d="M67.427,101.562 C67.482,100.907 67.551,99.92 67.589,99.014 C65.7,91.352 63.595,87.427 60.936,88.234 C60.84,89.079 60.764,89.963 60.7,90.919 C63.851,89.531 66.161,95.976 67.427,101.562 z" fill="#FFFFFF" id="path726"/>
        <path d="M66.579,97.253 L66.646,97.424 C66.635,97.534 66.633,97.631 66.637,97.713 C66.642,97.796 66.655,97.869 66.675,97.931 C66.696,97.997 66.714,98.026 66.731,98.018 C66.747,98.01 66.76,97.979 66.768,97.924 C66.773,97.888 66.775,97.851 66.774,97.812 C66.773,97.774 66.769,97.727 66.76,97.674 C66.755,97.638 66.74,97.562 66.718,97.445 C66.689,97.296 66.672,97.17 66.666,97.067 C66.658,96.923 66.663,96.791 66.68,96.673 C66.691,96.597 66.706,96.54 66.725,96.503 C66.744,96.466 66.765,96.458 66.788,96.478 C66.81,96.498 66.834,96.547 66.859,96.625 C66.899,96.752 66.924,96.889 66.932,97.035 C66.94,97.181 66.935,97.325 66.916,97.466 L66.849,97.275 C66.858,97.189 66.86,97.115 66.855,97.053 C66.851,96.99 66.84,96.93 66.822,96.873 C66.803,96.814 66.785,96.785 66.769,96.788 C66.759,96.789 66.751,96.809 66.745,96.848 C66.74,96.883 66.739,96.924 66.742,96.969 C66.745,97.027 66.76,97.123 66.787,97.257 C66.814,97.391 66.832,97.5 66.841,97.585 C66.851,97.669 66.856,97.757 66.855,97.849 C66.854,97.94 66.847,98.032 66.833,98.127 C66.821,98.213 66.804,98.276 66.783,98.319 C66.761,98.362 66.739,98.372 66.715,98.35 C66.691,98.327 66.665,98.272 66.637,98.184 C66.596,98.056 66.571,97.914 66.562,97.759 C66.553,97.603 66.558,97.434 66.579,97.253 z" fill="#309E3A" id="path790"/>
        <path d="M66.259,96.283 L66.328,96.44 C66.318,96.552 66.316,96.65 66.321,96.731 C66.327,96.813 66.34,96.884 66.36,96.942 C66.382,97.004 66.401,97.029 66.417,97.018 C66.434,97.007 66.446,96.974 66.454,96.917 C66.459,96.881 66.46,96.844 66.459,96.805 C66.458,96.766 66.453,96.721 66.444,96.669 C66.438,96.634 66.423,96.561 66.4,96.448 C66.369,96.304 66.351,96.182 66.344,96.08 C66.335,95.937 66.339,95.805 66.355,95.684 C66.366,95.606 66.38,95.547 66.399,95.506 C66.417,95.466 66.438,95.453 66.461,95.469 C66.484,95.485 66.508,95.53 66.533,95.603 C66.575,95.722 66.6,95.854 66.61,95.999 C66.62,96.144 66.616,96.288 66.598,96.432 L66.529,96.253 C66.537,96.167 66.538,96.092 66.533,96.031 C66.529,95.969 66.517,95.911 66.498,95.857 C66.479,95.802 66.461,95.776 66.445,95.782 C66.435,95.785 66.427,95.807 66.422,95.847 C66.417,95.883 66.416,95.923 66.419,95.968 C66.423,96.025 66.439,96.118 66.467,96.247 C66.495,96.376 66.514,96.482 66.524,96.565 C66.535,96.647 66.54,96.735 66.54,96.826 C66.54,96.917 66.534,97.011 66.521,97.108 C66.509,97.196 66.493,97.263 66.472,97.31 C66.451,97.356 66.429,97.371 66.404,97.353 C66.38,97.335 66.354,97.284 66.325,97.202 C66.283,97.081 66.257,96.945 66.246,96.791 C66.236,96.636 66.24,96.467 66.259,96.283 z" fill="#309E3A" id="path791"/>
        <path d="M65.863,95.793 L66.066,94.253 L66.312,94.95 L66.278,95.211 L66.098,94.703 L66.053,95.045 L66.22,95.517 L66.186,95.776 L66.019,95.304 L65.964,95.723 L66.15,96.249 L66.115,96.509 L65.863,95.793 z" fill="#309E3A" id="path792"/>
        <path d="M65.286,93.605 L65.316,93.335 L65.467,93.695 L65.396,94.334 C65.374,94.365 65.346,94.372 65.313,94.356 C65.279,94.339 65.249,94.297 65.22,94.229 C65.184,94.142 65.156,94.032 65.137,93.898 C65.118,93.763 65.109,93.614 65.11,93.451 C65.111,93.287 65.12,93.128 65.137,92.974 C65.156,92.807 65.18,92.677 65.21,92.583 C65.239,92.489 65.272,92.443 65.309,92.443 C65.337,92.442 65.368,92.482 65.401,92.56 C65.444,92.663 65.473,92.785 65.487,92.927 C65.502,93.068 65.505,93.22 65.496,93.384 L65.419,93.279 C65.423,93.188 65.421,93.104 65.413,93.027 C65.404,92.949 65.39,92.886 65.37,92.838 C65.339,92.764 65.31,92.751 65.282,92.798 C65.254,92.845 65.23,92.956 65.211,93.133 C65.19,93.324 65.183,93.488 65.19,93.628 C65.198,93.766 65.217,93.87 65.246,93.941 C65.261,93.976 65.277,93.998 65.295,94.007 C65.312,94.015 65.329,94.013 65.344,94 L65.366,93.797 L65.286,93.605 z" fill="#309E3A" id="path795"/>
        <path d="M62.771,90.724 L62.827,88.938 L62.944,89.018 L62.975,90.283 L63.083,89.112 L63.199,89.192 L63.143,90.978 L63.07,90.929 L63.115,89.523 L62.994,90.876 L62.919,90.825 L62.887,89.368 L62.843,90.773 L62.771,90.724 z" fill="#309E3A" id="path804"/>
        <path d="M62.377,90.513 L62.414,88.716 L62.701,88.841 L62.695,89.145 L62.486,89.054 L62.478,89.453 L62.672,89.537 L62.666,89.84 L62.472,89.755 L62.462,90.244 L62.678,90.338 L62.672,90.642 L62.377,90.513 z" fill="#309E3A" id="path805"/>
        <g id="g812">
          <path d="M61.076,89.388 C61.077,89.204 61.084,89.05 61.097,88.927 C61.106,88.836 61.119,88.755 61.134,88.684 C61.15,88.613 61.167,88.561 61.186,88.528 C61.21,88.484 61.238,88.464 61.27,88.467 C61.327,88.475 61.373,88.563 61.406,88.732 C61.44,88.902 61.455,89.133 61.454,89.427 C61.452,89.718 61.434,89.944 61.398,90.105 C61.363,90.264 61.317,90.341 61.26,90.333 C61.202,90.326 61.157,90.239 61.124,90.071 C61.09,89.903 61.075,89.675 61.076,89.388 z" fill="#309E3A" id="path810"/>
          <path d="M61.157,89.386 C61.156,89.59 61.165,89.746 61.185,89.855 C61.205,89.962 61.23,90.018 61.262,90.022 C61.293,90.026 61.319,89.977 61.34,89.875 C61.36,89.773 61.371,89.617 61.373,89.408 C61.374,89.201 61.365,89.046 61.346,88.941 C61.327,88.837 61.301,88.783 61.269,88.779 C61.237,88.775 61.21,88.823 61.19,88.924 C61.169,89.024 61.158,89.178 61.157,89.386 z" fill="#F7FFFF" id="path811"/>
        </g>
        <g id="g815">
          <path d="M61.538,90.321 L61.542,88.516 L61.708,88.525 C61.749,88.528 61.779,88.546 61.798,88.58 C61.817,88.612 61.832,88.671 61.843,88.754 C61.854,88.838 61.86,88.933 61.859,89.04 C61.859,89.175 61.85,89.287 61.833,89.374 C61.815,89.461 61.789,89.515 61.755,89.536 C61.772,89.583 61.786,89.634 61.797,89.69 C61.808,89.745 61.823,89.844 61.841,89.985 L61.888,90.34 L61.794,90.335 L61.738,89.939 C61.718,89.798 61.704,89.709 61.697,89.672 C61.69,89.635 61.682,89.609 61.674,89.596 C61.665,89.582 61.652,89.574 61.634,89.573 L61.618,89.572 L61.616,90.325 L61.538,90.321 z" fill="#309E3A" id="path808"/>
          <path d="M61.619,89.284 L61.677,89.287 C61.715,89.289 61.738,89.283 61.748,89.269 C61.757,89.254 61.765,89.229 61.77,89.194 C61.775,89.158 61.778,89.113 61.778,89.059 C61.778,88.998 61.775,88.949 61.768,88.912 C61.761,88.873 61.751,88.849 61.739,88.839 C61.732,88.834 61.713,88.831 61.681,88.829 L61.62,88.826 L61.619,89.284 z" fill="#FFFFFF" id="path809"/>
        </g>
        <g id="g818">
          <path d="M61.982,88.604 L62.126,88.637 C62.158,88.645 62.183,88.662 62.199,88.689 C62.222,88.726 62.241,88.786 62.256,88.869 C62.272,88.952 62.283,89.053 62.29,89.17 C62.297,89.287 62.3,89.43 62.298,89.599 C62.297,89.747 62.291,89.874 62.282,89.98 C62.271,90.108 62.256,90.211 62.237,90.288 C62.223,90.346 62.204,90.39 62.18,90.419 C62.163,90.44 62.139,90.448 62.11,90.441 L61.963,90.406 L61.982,88.604 z" fill="#309E3A" id="path806"/>
          <path d="M62.057,88.927 L62.044,90.121 L62.103,90.135 C62.125,90.14 62.141,90.138 62.151,90.129 C62.164,90.117 62.174,90.094 62.183,90.061 C62.192,90.028 62.199,89.972 62.206,89.892 C62.212,89.813 62.216,89.703 62.217,89.564 C62.219,89.424 62.217,89.317 62.213,89.241 C62.208,89.165 62.201,89.105 62.192,89.061 C62.183,89.017 62.171,88.986 62.157,88.968 C62.146,88.954 62.125,88.943 62.093,88.935 L62.057,88.927 z" fill="#FFFFFF" id="path807"/>
        </g>
        <g id="g824">
          <path d="M63.895,91.829 L63.986,90.074 L64.109,90.21 C64.155,90.262 64.185,90.304 64.198,90.338 C64.219,90.388 64.234,90.466 64.244,90.571 C64.254,90.675 64.255,90.797 64.248,90.936 C64.242,91.044 64.234,91.13 64.221,91.194 C64.209,91.258 64.195,91.304 64.18,91.332 C64.165,91.359 64.15,91.372 64.136,91.37 C64.117,91.367 64.09,91.346 64.056,91.307 L64.006,91.252 L63.972,91.914 L63.895,91.829 z" fill="#309E3A" id="path800"/>
          <path d="M64.047,90.456 L64.021,90.954 L64.063,91 C64.093,91.034 64.114,91.047 64.125,91.04 C64.136,91.033 64.146,91.013 64.153,90.98 C64.161,90.948 64.166,90.905 64.169,90.853 C64.172,90.79 64.171,90.732 64.165,90.682 C64.159,90.631 64.15,90.594 64.138,90.57 C64.13,90.552 64.112,90.527 64.084,90.497 L64.047,90.456 z" fill="#FFFFFF" id="path801"/>
        </g>
        <g id="g827">
          <path d="M64.257,92.329 L64.386,90.627 L64.542,90.882 C64.581,90.946 64.608,91.008 64.624,91.068 C64.639,91.127 64.65,91.205 64.654,91.3 C64.659,91.396 64.658,91.494 64.65,91.595 C64.64,91.722 64.624,91.815 64.602,91.872 C64.579,91.928 64.551,91.941 64.517,91.91 C64.53,91.98 64.539,92.049 64.546,92.118 C64.552,92.187 64.559,92.302 64.567,92.463 L64.587,92.868 L64.498,92.724 L64.473,92.266 C64.464,92.102 64.457,91.998 64.452,91.952 C64.448,91.906 64.442,91.87 64.436,91.845 C64.429,91.819 64.417,91.792 64.4,91.764 L64.385,91.74 L64.331,92.45 L64.257,92.329 z" fill="#309E3A" id="path798"/>
          <path d="M64.405,91.468 L64.46,91.558 C64.496,91.616 64.518,91.645 64.528,91.645 C64.538,91.646 64.547,91.633 64.555,91.607 C64.562,91.582 64.568,91.543 64.572,91.492 C64.576,91.435 64.576,91.383 64.572,91.337 C64.569,91.291 64.561,91.254 64.55,91.225 C64.544,91.211 64.526,91.18 64.496,91.131 L64.438,91.036 L64.405,91.468 z" fill="#FFFFFF" id="path799"/>
        </g>
        <g id="g830">
          <path d="M64.714,92.263 C64.726,92.087 64.741,91.948 64.76,91.845 C64.775,91.77 64.792,91.708 64.811,91.659 C64.83,91.61 64.85,91.582 64.869,91.573 C64.896,91.561 64.924,91.577 64.954,91.621 C65.009,91.7 65.047,91.842 65.069,92.047 C65.092,92.252 65.094,92.495 65.075,92.775 C65.056,93.054 65.025,93.248 64.982,93.358 C64.939,93.468 64.89,93.483 64.835,93.404 C64.78,93.324 64.741,93.183 64.719,92.98 C64.697,92.776 64.695,92.537 64.714,92.263 z" fill="#309E3A" id="path796"/>
          <path d="M64.792,92.363 C64.779,92.558 64.778,92.72 64.791,92.849 C64.804,92.977 64.825,93.063 64.855,93.107 C64.885,93.15 64.913,93.135 64.939,93.063 C64.965,92.991 64.984,92.855 64.998,92.655 C65.011,92.457 65.012,92.297 64.999,92.172 C64.987,92.048 64.966,91.964 64.935,91.919 C64.904,91.875 64.876,91.888 64.85,91.959 C64.825,92.03 64.805,92.164 64.792,92.363 z" fill="#FFFFFF" id="path797"/>
        </g>
        <g id="g833">
          <path d="M65.474,94.775 L65.653,93.172 L65.8,93.525 C65.837,93.613 65.862,93.692 65.876,93.761 C65.889,93.83 65.897,93.913 65.899,94.011 C65.901,94.109 65.896,94.205 65.886,94.3 C65.872,94.42 65.854,94.501 65.83,94.543 C65.806,94.585 65.777,94.579 65.745,94.527 C65.755,94.604 65.763,94.679 65.767,94.751 C65.772,94.824 65.775,94.942 65.778,95.107 L65.785,95.521 L65.702,95.32 L65.69,94.851 C65.686,94.683 65.683,94.575 65.68,94.527 C65.677,94.479 65.672,94.44 65.666,94.41 C65.66,94.38 65.649,94.346 65.633,94.307 L65.619,94.273 L65.544,94.943 L65.474,94.775 z" fill="#309E3A" id="path793"/>
          <path d="M65.647,94.017 L65.699,94.141 C65.733,94.222 65.754,94.265 65.764,94.272 C65.774,94.279 65.783,94.272 65.791,94.251 C65.799,94.231 65.806,94.196 65.812,94.148 C65.818,94.094 65.819,94.043 65.817,93.995 C65.814,93.947 65.808,93.905 65.798,93.869 C65.792,93.852 65.776,93.809 65.747,93.741 L65.693,93.611 L65.647,94.017 z" fill="#FFFFFF" id="path794"/>
        </g>
        <g id="g836">
          <path d="M66.919,98.07 C66.941,97.918 66.965,97.805 66.99,97.733 C67.008,97.68 67.028,97.643 67.049,97.622 C67.071,97.601 67.091,97.6 67.111,97.618 C67.137,97.642 67.163,97.695 67.189,97.777 C67.236,97.926 67.264,98.114 67.273,98.339 C67.282,98.566 67.268,98.8 67.233,99.044 C67.197,99.285 67.156,99.43 67.107,99.478 C67.059,99.525 67.012,99.474 66.964,99.326 C66.916,99.175 66.888,98.988 66.879,98.764 C66.871,98.539 66.884,98.308 66.919,98.07 z" fill="#309E3A" id="path788"/>
          <path d="M66.987,98.27 C66.963,98.44 66.952,98.595 66.956,98.735 C66.961,98.875 66.976,98.986 67.002,99.067 C67.028,99.148 67.055,99.172 67.084,99.138 C67.114,99.103 67.141,98.999 67.166,98.826 C67.191,98.654 67.202,98.501 67.198,98.366 C67.194,98.231 67.179,98.121 67.152,98.037 C67.125,97.953 67.097,97.928 67.068,97.962 C67.039,97.995 67.013,98.098 66.987,98.27 z" fill="#FFFFFF" id="path789"/>
        </g>
        <path d="M63.454,91.094 L63.517,89.827 L63.719,90.043 L63.709,90.257 L63.562,90.1 L63.548,90.381 L63.685,90.527 L63.674,90.74 L63.537,90.594 L63.52,90.939 L63.673,91.101 L63.662,91.315 L63.454,91.094 z" fill="#309E3A" id="path872"/>
      </g>
    </g>
  </g>
</svg>
