<?xml version="1.0" encoding="UTF-8"?>
<!DOCTYPE svg PUBLIC "-//W3C//DTD SVG 1.1//EN" "http://www.w3.org/Graphics/SVG/1.1/DTD/svg11.dtd">
<svg version="1.1" xmlns="http://www.w3.org/2000/svg" xmlns:xlink="http://www.w3.org/1999/xlink" x="0" y="0" width="20" height="64.677" viewBox="0, 0, 20, 64.677">
  <g  transform="translate(-54, -63.323)">
    <g id="cn">
      <path d="M70.18,63.323 L74,113.184 L64,128 L54,113.184 L57.82,63.323 L70.18,63.323 z" fill="#FF3300"/>
      <path d="M57.313,69.935 L57.699,75.539 L59.193,75.549 L57.992,79.854 L58.451,86.747 L57.236,82.537 L56.027,86.788 L56.053,86.391 L57.313,69.935 z" fill="#FFFF00"/>
      <path d="M61.365,66.566 L61.363,68.576 L61.755,69.227 L61.36,69.837 L61.354,71.847 L61.112,70.213 L60.716,70.805 L60.962,69.185 L60.723,67.541 L61.117,68.174 L61.365,66.566 z" fill="#FFFF00"/>
      <path d="M60.262,96.38 L60.303,98.38 L60.707,98.828 L60.327,99.635 L60.364,101.637 L60.089,100.136 L59.708,100.925 L59.917,99.19 L59.644,97.676 L60.049,98.105 L60.262,96.38 z" fill="#FFFF00"/>
      <path d="M62.628,77.322 L62.506,79.244 L62.843,80.415 L62.428,80.447 L62.303,82.362 L62.168,80.46 L61.754,80.473 L62.085,79.266 L61.955,77.358 L62.294,78.514 L62.628,77.322 z" fill="#FFFF00"/>
      <path d="M61.898,87.05 L62.032,88.952 L62.446,88.941 L62.115,90.147 L62.245,92.055 L61.906,90.898 L61.572,92.089 L61.694,90.168 L61.358,88.996 L61.772,88.966 L61.898,87.05 z" fill="#FFFF00"/>
    </g>
  </g>
</svg>
