<?xml version="1.0" encoding="UTF-8"?>
<!DOCTYPE svg PUBLIC "-//W3C//DTD SVG 1.1//EN" "http://www.w3.org/Graphics/SVG/1.1/DTD/svg11.dtd">
<svg version="1.1" xmlns="http://www.w3.org/2000/svg" xmlns:xlink="http://www.w3.org/1999/xlink" x="0" y="0" width="20" height="64.677" viewBox="0, 0, 20, 64.677">
  <g  transform="translate(-54, -63.323)">
    <g id="eg">
      <path d="M71.808,84.574 L73.472,106.287 L54.528,106.287 L56.192,84.574 L71.808,84.574 z" fill="#FFFFFF"/>
      <path d="M73.472,106.287 L74,113.184 L64,128 L54,113.184 L54.528,106.287 L73.472,106.287 z" fill="#000000"/>
      <path d="M57.82,63.323 L70.18,63.323 L71.808,84.574 L56.192,84.574 L57.82,63.323 z" fill="#FF0000"/>
      <g id="g827">
        <g id="path725">
          <path d="M63.785,95.847 L63.902,95.817 L64.058,101.76 L63.949,102.492 L63.821,101.82 L63.785,95.847 z" fill="#D7B900"/>
          <path d="M63.785,95.847 L63.902,95.817 L64.058,101.76 L63.949,102.492 L63.821,101.82 L63.785,95.847 z" fill-opacity="0" stroke="#FFFFFF" stroke-width="0.607"/>
        </g>
        <g id="path726">
          <path d="M63.561,95.82 L63.678,95.841 L63.672,101.817 L63.544,102.497 L63.434,101.774 L63.561,95.82 z" fill="#D7B900"/>
          <path d="M63.561,95.82 L63.678,95.841 L63.672,101.817 L63.544,102.497 L63.434,101.774 L63.561,95.82 z" fill-opacity="0" stroke="#FFFFFF" stroke-width="0.607"/>
        </g>
        <g id="g720">
          <g id="path1700">
            <path d="M65.351,90.118 L65.479,101.081 L65.222,100.204 L65.093,90.118 L65.351,90.118 z" fill="#D7B900"/>
            <path d="M65.351,90.118 L65.479,101.081 L65.222,100.204 L65.093,90.118 L65.351,90.118 z" fill-opacity="0" stroke="#FFFFFF" stroke-width="1.287"/>
          </g>
          <g id="path1701">
            <path d="M65.093,90.118 L65.222,100.204 L64.964,99.327 L64.835,90.118 L65.093,90.118 z" fill="#D7B900"/>
            <path d="M65.093,90.118 L65.222,100.204 L64.964,99.327 L64.835,90.118 L65.093,90.118 z" fill-opacity="0" stroke="#FFFFFF" stroke-width="1.287"/>
          </g>
          <g id="path1702">
            <path d="M64.835,90.118 L64.964,99.327 L64.706,98.45 L64.577,90.118 L64.835,90.118 z" fill="#D7B900"/>
            <path d="M64.835,90.118 L64.964,99.327 L64.706,98.45 L64.577,90.118 L64.835,90.118 z" fill-opacity="0" stroke="#FFFFFF" stroke-width="1.287"/>
          </g>
          <g id="path1703">
            <path d="M64.577,90.118 L64.706,98.45 L64.449,97.573 L64.32,90.118 L64.577,90.118 z" fill="#D7B900"/>
            <path d="M64.577,90.118 L64.706,98.45 L64.449,97.573 L64.32,90.118 L64.577,90.118 z" fill-opacity="0" stroke="#FFFFFF" stroke-width="1.287"/>
          </g>
        </g>
        <g id="g715">
          <g id="path1696">
            <path d="M62.212,90.111 L62.097,101.073 L62.326,100.196 L62.441,90.111 L62.212,90.111 z" fill="#D7B900"/>
            <path d="M62.212,90.111 L62.097,101.073 L62.326,100.196 L62.441,90.111 L62.212,90.111 z" fill-opacity="0" stroke="#FFFFFF" stroke-width="1.145"/>
          </g>
          <g id="path1697">
            <path d="M62.441,90.111 L62.326,100.196 L62.556,99.319 L62.67,90.111 L62.441,90.111 z" fill="#D7B900"/>
            <path d="M62.441,90.111 L62.326,100.196 L62.556,99.319 L62.67,90.111 L62.441,90.111 z" fill-opacity="0" stroke="#FFFFFF" stroke-width="1.145"/>
          </g>
          <g id="path1698">
            <path d="M62.67,90.111 L62.556,99.319 L62.785,98.442 L62.9,90.111 L62.67,90.111 z" fill="#D7B900"/>
            <path d="M62.67,90.111 L62.556,99.319 L62.785,98.442 L62.9,90.111 L62.67,90.111 z" fill-opacity="0" stroke="#FFFFFF" stroke-width="1.145"/>
          </g>
          <g id="path1699">
            <path d="M62.909,90.226 L62.795,98.558 L63.024,97.681 L63.139,90.226 L62.909,90.226 z" fill="#D7B900"/>
            <path d="M62.909,90.226 L62.795,98.558 L63.024,97.681 L63.139,90.226 L62.909,90.226 z" fill-opacity="0" stroke="#FFFFFF" stroke-width="1.145"/>
          </g>
        </g>
        <g id="path1704">
          <path d="M62.194,90.118 C62.187,90.086 62.332,89.656 62.58,89.656 C62.952,89.656 63.009,90.118 63.257,90.118 C63.504,90.118 64.072,90.118 64.32,90.118 C64.567,90.118 64.639,89.656 65.011,89.656 C65.259,89.656 65.376,90.109 65.383,90.118 C65.383,90.118 65.259,90.095 65.011,90.095 C64.763,90.095 64.666,91.062 64.416,91.042 C64.229,91.062 63.408,91.042 63.16,91.042 C62.912,91.042 62.828,90.118 62.58,90.118 C62.332,90.118 62.187,90.086 62.194,90.118 z" fill="#FFFFFF"/>
          <path d="M62.194,90.118 C62.187,90.086 62.332,89.656 62.58,89.656 C62.952,89.656 63.009,90.118 63.257,90.118 C63.504,90.118 64.072,90.118 64.32,90.118 C64.567,90.118 64.639,89.656 65.011,89.656 C65.259,89.656 65.376,90.109 65.383,90.118 C65.383,90.118 65.259,90.095 65.011,90.095 C64.763,90.095 64.666,91.062 64.416,91.042 C64.229,91.062 63.408,91.042 63.16,91.042 C62.912,91.042 62.828,90.118 62.58,90.118 C62.332,90.118 62.187,90.086 62.194,90.118 z" fill-opacity="0" stroke="#D7B900" stroke-width="1.237"/>
        </g>
        <g id="path709">
          <path d="M65.392,102.027 L65.392,102.583 L65.52,103.139 L65.392,103.695 L65.392,104.251 C64.88,105.363 64.351,105.363 63.857,105.363 C63.364,105.363 62.834,105.363 62.195,104.251 L62.195,103.695 L62.067,103.139 L62.195,102.583 L62.195,102.027 C62.707,102.583 63.218,103.139 63.857,103.139 C64.497,103.139 64.88,102.583 65.392,102.027 z" fill="#FFFFFF"/>
          <path d="M65.392,102.027 L65.392,102.583 L65.52,103.139 L65.392,103.695 L65.392,104.251 C64.88,105.363 64.351,105.363 63.857,105.363 C63.364,105.363 62.834,105.363 62.195,104.251 L62.195,103.695 L62.067,103.139 L62.195,102.583 L62.195,102.027 C62.707,102.583 63.218,103.139 63.857,103.139 C64.497,103.139 64.88,102.583 65.392,102.027 z" fill-opacity="0" stroke="#D7B900" stroke-width="1.323"/>
        </g>
        <g id="g695">
          <g id="rect696">
            <path d="M62.545,101.906 L62.545,101.906 C62.558,101.737 62.628,101.653 62.701,101.719 L63.621,102.54 C63.695,102.606 63.744,102.796 63.732,102.965 L63.732,102.965 C63.719,103.134 63.65,103.218 63.576,103.152 L62.656,102.33 C62.582,102.265 62.533,102.074 62.545,101.906 z" fill="#FFFFFF"/>
            <path d="M62.545,101.906 L62.545,101.906 C62.558,101.737 62.628,101.653 62.701,101.719 L63.621,102.54 C63.695,102.606 63.744,102.796 63.732,102.965 L63.732,102.965 C63.719,103.134 63.65,103.218 63.576,103.152 L62.656,102.33 C62.582,102.265 62.533,102.074 62.545,101.906 z" fill-opacity="0" stroke="#D7B900" stroke-width="0.648"/>
          </g>
          <g id="g697">
            <g id="path698">
              <path d="M63.005,101.219 L63.048,102.338 L63.157,101.479 L63.2,102.598 L63.309,101.739 L63.352,102.857 C63.392,102.37 63.425,101.632 63.42,100.819 C63.291,99.782 63.149,99.608 62.958,100.099 C62.924,100.692 62.9,101.412 62.891,102.076 L63.005,101.219 z" fill="#FFFFFF"/>
              <path d="M63.005,101.219 L63.048,102.338 L63.157,101.479 L63.2,102.598 L63.309,101.739 L63.352,102.857 C63.392,102.37 63.425,101.632 63.42,100.819 C63.291,99.782 63.149,99.608 62.958,100.099 C62.924,100.692 62.9,101.412 62.891,102.076 L63.005,101.219 z" fill-opacity="0" stroke="#D7B900" stroke-width="0.787"/>
            </g>
            <g id="path699">
              <path d="M63.041,100.179 L63.083,101.297 L63.193,100.438 L63.235,101.557 L63.345,100.698 L63.387,101.817 C63.428,101.329 63.461,100.591 63.456,99.778 C63.327,98.741 63.185,98.568 62.994,99.058 C62.96,99.651 62.936,100.372 62.927,101.036 L63.041,100.179 z" fill="#FFFFFF"/>
              <path d="M63.041,100.179 L63.083,101.297 L63.193,100.438 L63.235,101.557 L63.345,100.698 L63.387,101.817 C63.428,101.329 63.461,100.591 63.456,99.778 C63.327,98.741 63.185,98.568 62.994,99.058 C62.96,99.651 62.936,100.372 62.927,101.036 L63.041,100.179 z" fill-opacity="0" stroke="#D7B900" stroke-width="0.787"/>
            </g>
            <g id="path700">
              <path d="M63.077,99.138 L63.119,100.257 L63.229,99.398 L63.271,100.516 L63.381,99.658 L63.423,100.776 C63.464,100.289 63.497,99.551 63.492,98.737 C63.363,97.701 63.221,97.527 63.03,98.018 C62.996,98.611 62.972,99.331 62.963,99.995 L63.077,99.138 z" fill="#FFFFFF"/>
              <path d="M63.077,99.138 L63.119,100.257 L63.229,99.398 L63.271,100.516 L63.381,99.658 L63.423,100.776 C63.464,100.289 63.497,99.551 63.492,98.737 C63.363,97.701 63.221,97.527 63.03,98.018 C62.996,98.611 62.972,99.331 62.963,99.995 L63.077,99.138 z" fill-opacity="0" stroke="#D7B900" stroke-width="0.787"/>
            </g>
            <g id="path701">
              <path d="M63.123,97.853 L63.166,98.972 L63.275,98.113 L63.318,99.232 L63.427,98.373 L63.47,99.492 C63.51,99.004 63.543,98.266 63.538,97.453 C63.409,96.416 63.267,96.242 63.076,96.733 C63.042,97.326 63.018,98.047 63.009,98.71 L63.123,97.853 z" fill="#FFFFFF"/>
              <path d="M63.123,97.853 L63.166,98.972 L63.275,98.113 L63.318,99.232 L63.427,98.373 L63.47,99.492 C63.51,99.004 63.543,98.266 63.538,97.453 C63.409,96.416 63.267,96.242 63.076,96.733 C63.042,97.326 63.018,98.047 63.009,98.71 L63.123,97.853 z" fill-opacity="0" stroke="#D7B900" stroke-width="0.787"/>
            </g>
            <g id="path702">
              <path d="M63.159,96.813 L63.201,97.931 L63.311,97.072 L63.353,98.191 L63.463,97.332 L63.505,98.451 C63.546,97.963 63.579,97.226 63.574,96.412 C63.445,95.376 63.303,95.202 63.112,95.692 C63.078,96.285 63.054,97.006 63.045,97.67 L63.159,96.813 z" fill="#FFFFFF"/>
              <path d="M63.159,96.813 L63.201,97.931 L63.311,97.072 L63.353,98.191 L63.463,97.332 L63.505,98.451 C63.546,97.963 63.579,97.226 63.574,96.412 C63.445,95.376 63.303,95.202 63.112,95.692 C63.078,96.285 63.054,97.006 63.045,97.67 L63.159,96.813 z" fill-opacity="0" stroke="#D7B900" stroke-width="0.787"/>
            </g>
            <g id="path703">
              <path d="M63.195,95.772 L63.237,96.891 L63.347,96.032 L63.389,97.15 L63.499,96.292 L63.541,97.41 C63.582,96.923 63.615,96.185 63.61,95.371 C63.481,94.335 63.339,94.161 63.148,94.652 C63.114,95.245 63.09,95.965 63.081,96.629 L63.195,95.772 z" fill="#FFFFFF"/>
              <path d="M63.195,95.772 L63.237,96.891 L63.347,96.032 L63.389,97.15 L63.499,96.292 L63.541,97.41 C63.582,96.923 63.615,96.185 63.61,95.371 C63.481,94.335 63.339,94.161 63.148,94.652 C63.114,95.245 63.09,95.965 63.081,96.629 L63.195,95.772 z" fill-opacity="0" stroke="#D7B900" stroke-width="0.787"/>
            </g>
          </g>
          <g id="path704">
            <path d="M63.54,103.28 C63.55,102.965 63.577,102.745 63.602,102.788 C63.626,102.831 63.638,103.121 63.628,103.436 C63.622,103.64 63.608,103.814 63.591,103.892 C63.574,103.97 63.557,103.941 63.547,103.814 C63.536,103.688 63.534,103.484 63.54,103.28 L63.584,103.358 z" fill="#FFFFFF"/>
            <path d="M63.54,103.28 C63.55,102.965 63.577,102.745 63.602,102.788 C63.626,102.831 63.638,103.121 63.628,103.436 C63.622,103.64 63.608,103.814 63.591,103.892 C63.574,103.97 63.557,103.941 63.547,103.814 C63.536,103.688 63.534,103.484 63.54,103.28 L63.584,103.358 z" fill-opacity="0" stroke="#D7B900" stroke-width="0.69"/>
          </g>
          <g id="path705">
            <path d="M63.073,102.878 C63.081,102.53 63.107,102.29 63.132,102.342 C63.157,102.393 63.171,102.716 63.163,103.063 C63.158,103.289 63.145,103.479 63.129,103.563 C63.112,103.647 63.095,103.612 63.084,103.47 C63.072,103.329 63.068,103.103 63.073,102.878 L63.118,102.97 z" fill="#FFFFFF"/>
            <path d="M63.073,102.878 C63.081,102.53 63.107,102.29 63.132,102.342 C63.157,102.393 63.171,102.716 63.163,103.063 C63.158,103.289 63.145,103.479 63.129,103.563 C63.112,103.647 63.095,103.612 63.084,103.47 C63.072,103.329 63.068,103.103 63.073,102.878 L63.118,102.97 z" fill-opacity="0" stroke="#D7B900" stroke-width="0.719"/>
          </g>
          <g id="path706">
            <path d="M62.618,102.481 C62.628,102.142 62.658,101.905 62.684,101.952 C62.71,101.998 62.723,102.311 62.713,102.65 C62.706,102.87 62.691,103.058 62.673,103.142 C62.655,103.226 62.637,103.193 62.626,103.057 C62.614,102.92 62.611,102.701 62.618,102.481 L62.666,102.566 z" fill="#FFFFFF"/>
            <path d="M62.618,102.481 C62.628,102.142 62.658,101.905 62.684,101.952 C62.71,101.998 62.723,102.311 62.713,102.65 C62.706,102.87 62.691,103.058 62.673,103.142 C62.655,103.226 62.637,103.193 62.626,103.057 C62.614,102.92 62.611,102.701 62.618,102.481 L62.666,102.566 z" fill-opacity="0" stroke="#D7B900" stroke-width="0.741"/>
          </g>
        </g>
        <g id="path1751">
          <path d="M63.16,91.042 C63.16,91.042 63.436,89.997 63.436,88.681 C63.436,88.681 64.032,88.681 64.032,88.681 C64.032,89.997 64.32,91.042 64.329,90.875 C64.18,90.875 63.883,90.436 63.734,89.559 C63.585,90.436 63.309,91.042 63.16,91.042 z" fill="#FFFFFF"/>
          <path d="M63.16,91.042 C63.16,91.042 63.436,89.997 63.436,88.681 C63.436,88.681 64.032,88.681 64.032,88.681 C64.032,89.997 64.32,91.042 64.329,90.875 C64.18,90.875 63.883,90.436 63.734,89.559 C63.585,90.436 63.309,91.042 63.16,91.042 z" fill-opacity="0" stroke="#D7B900" stroke-width="1.486"/>
        </g>
        <g id="path1750">
          <path d="M63.063,90.58 C63.063,90.58 63.45,89.125 63.45,87.808 C63.45,86.884 63.45,86.838 63.45,85.96 C63.45,85.521 63.643,85.498 63.74,85.498 C63.883,85.498 64.03,85.521 64.03,85.96 C64.03,86.838 64.03,87.096 64.03,87.808 C64.03,89.125 64.416,90.58 64.416,90.58 C64.131,90.58 63.979,89.61 63.836,88.732 C63.836,89.171 63.877,90.067 63.734,90.506 C63.591,90.067 63.643,89.171 63.643,88.732 C63.5,89.61 63.349,90.58 63.063,90.58 z" fill="#FFFFFF"/>
          <path d="M63.063,90.58 C63.063,90.58 63.45,89.125 63.45,87.808 C63.45,86.884 63.45,86.838 63.45,85.96 C63.45,85.521 63.643,85.498 63.74,85.498 C63.883,85.498 64.03,85.521 64.03,85.96 C64.03,86.838 64.03,87.096 64.03,87.808 C64.03,89.125 64.416,90.58 64.416,90.58 C64.131,90.58 63.979,89.61 63.836,88.732 C63.836,89.171 63.877,90.067 63.734,90.506 C63.591,90.067 63.643,89.171 63.643,88.732 C63.5,89.61 63.349,90.58 63.063,90.58 z" fill-opacity="0" stroke="#D7B900" stroke-width="1.426"/>
        </g>
        <g id="path1756">
          <path d="M63.282,85.336 C63.282,85.336 63.633,85.872 63.633,85.872 C63.607,86.146 63.581,86.419 63.464,86.24 C63.347,86.061 63.256,85.609 63.282,85.336 z" fill="#FFFFFF"/>
          <path d="M63.282,85.336 C63.282,85.336 63.633,85.872 63.633,85.872 C63.607,86.146 63.581,86.419 63.464,86.24 C63.347,86.061 63.256,85.609 63.282,85.336 z" fill-opacity="0" stroke="#D7B900" stroke-width="1.503"/>
        </g>
        <g id="path1754">
          <path d="M63.542,85.42 C63.659,85.599 63.633,85.872 63.607,86.146 C63.431,85.877 63.34,85.425 63.139,85.43 C63.167,85.128 63.191,84.883 63.366,85.152 C63.542,85.42 63.366,85.152 63.542,85.42 z" fill="#FFFFFF"/>
          <path d="M63.542,85.42 C63.659,85.599 63.633,85.872 63.607,86.146 C63.431,85.877 63.34,85.425 63.139,85.43 C63.167,85.128 63.191,84.883 63.366,85.152 C63.542,85.42 63.366,85.152 63.542,85.42 z" fill-opacity="0" stroke="#D7B900" stroke-width="1.841"/>
        </g>
        <g id="path1757">
          <path d="M63.757,85.983 C63.767,85.87 63.75,85.738 63.718,85.688 C63.685,85.639 63.65,85.691 63.64,85.804 C63.632,85.877 63.637,85.962 63.652,86.027 C63.666,86.092 63.689,86.126 63.71,86.117 C63.732,86.108 63.75,86.057 63.757,85.983 L63.698,85.893 z" fill="#FFFFFF"/>
          <path d="M63.757,85.983 C63.767,85.87 63.75,85.738 63.718,85.688 C63.685,85.639 63.65,85.691 63.64,85.804 C63.632,85.877 63.637,85.962 63.652,86.027 C63.666,86.092 63.689,86.126 63.71,86.117 C63.732,86.108 63.75,86.057 63.757,85.983 L63.698,85.893 z" fill-opacity="0" stroke="#D7B900" stroke-width="1.227"/>
        </g>
        <g id="path710">
          <path d="M63.673,95.83 L63.791,95.83 L63.853,101.801 L63.732,102.503 L63.615,101.801 L63.673,95.83 z" fill="#D7B900"/>
          <path d="M63.673,95.83 L63.791,95.83 L63.853,101.801 L63.732,102.503 L63.615,101.801 L63.673,95.83 z" fill-opacity="0" stroke="#FFFFFF" stroke-width="0.607"/>
        </g>
        <g id="g683">
          <g id="rect1764">
            <path d="M64.951,101.864 L64.951,101.864 C64.938,101.694 64.862,101.604 64.781,101.664 L63.768,102.41 C63.687,102.47 63.632,102.656 63.645,102.826 L63.645,102.826 C63.658,102.997 63.734,103.086 63.815,103.026 L64.828,102.28 C64.909,102.22 64.964,102.034 64.951,101.864 z" fill="#FFFFFF"/>
            <path d="M64.951,101.864 L64.951,101.864 C64.938,101.694 64.862,101.604 64.781,101.664 L63.768,102.41 C63.687,102.47 63.632,102.656 63.645,102.826 L63.645,102.826 C63.658,102.997 63.734,103.086 63.815,103.026 L64.828,102.28 C64.909,102.22 64.964,102.034 64.951,101.864 z" fill-opacity="0" stroke="#D7B900" stroke-width="0.655"/>
          </g>
          <g id="g673">
            <g id="path674">
              <path d="M64.45,101.139 L64.398,102.255 L64.282,101.387 L64.23,102.503 L64.114,101.634 L64.063,102.75 C64.021,102.259 63.987,101.518 63.996,100.704 C64.143,99.677 64.299,99.515 64.506,100.022 C64.541,100.618 64.564,101.341 64.571,102.006 L64.45,101.139 z" fill="#FFFFFF"/>
              <path d="M64.45,101.139 L64.398,102.255 L64.282,101.387 L64.23,102.503 L64.114,101.634 L64.063,102.75 C64.021,102.259 63.987,101.518 63.996,100.704 C64.143,99.677 64.299,99.515 64.506,100.022 C64.541,100.618 64.564,101.341 64.571,102.006 L64.45,101.139 z" fill-opacity="0" stroke="#D7B900" stroke-width="0.857"/>
            </g>
            <g id="path675">
              <path d="M64.415,100.095 L64.364,101.211 L64.248,100.342 L64.196,101.458 L64.08,100.59 L64.028,101.706 C63.986,101.214 63.953,100.473 63.962,99.659 C64.108,98.633 64.265,98.47 64.472,98.977 C64.507,99.574 64.53,100.297 64.537,100.962 L64.415,100.095 z" fill="#FFFFFF"/>
              <path d="M64.415,100.095 L64.364,101.211 L64.248,100.342 L64.196,101.458 L64.08,100.59 L64.028,101.706 C63.986,101.214 63.953,100.473 63.962,99.659 C64.108,98.633 64.265,98.47 64.472,98.977 C64.507,99.574 64.53,100.297 64.537,100.962 L64.415,100.095 z" fill-opacity="0" stroke="#D7B900" stroke-width="0.857"/>
            </g>
            <g id="path676">
              <path d="M64.381,99.05 L64.329,100.166 L64.213,99.298 L64.162,100.414 L64.045,99.545 L63.994,100.661 C63.952,100.17 63.918,99.429 63.928,98.615 C64.074,97.588 64.231,97.426 64.437,97.933 C64.472,98.529 64.495,99.252 64.502,99.917 L64.381,99.05 z" fill="#FFFFFF"/>
              <path d="M64.381,99.05 L64.329,100.166 L64.213,99.298 L64.162,100.414 L64.045,99.545 L63.994,100.661 C63.952,100.17 63.918,99.429 63.928,98.615 C64.074,97.588 64.231,97.426 64.437,97.933 C64.472,98.529 64.495,99.252 64.502,99.917 L64.381,99.05 z" fill-opacity="0" stroke="#D7B900" stroke-width="0.857"/>
            </g>
            <g id="path677">
              <path d="M64.336,97.76 L64.284,98.876 L64.168,98.008 L64.116,99.124 L64,98.255 L63.949,99.371 C63.906,98.88 63.873,98.139 63.882,97.325 C64.029,96.298 64.185,96.136 64.392,96.643 C64.427,97.239 64.45,97.963 64.457,98.628 L64.336,97.76 z" fill="#FFFFFF"/>
              <path d="M64.336,97.76 L64.284,98.876 L64.168,98.008 L64.116,99.124 L64,98.255 L63.949,99.371 C63.906,98.88 63.873,98.139 63.882,97.325 C64.029,96.298 64.185,96.136 64.392,96.643 C64.427,97.239 64.45,97.963 64.457,98.628 L64.336,97.76 z" fill-opacity="0" stroke="#D7B900" stroke-width="0.857"/>
            </g>
            <g id="path678">
              <path d="M64.301,96.716 L64.25,97.832 L64.133,96.963 L64.082,98.079 L63.966,97.211 L63.914,98.327 C63.872,97.836 63.839,97.094 63.848,96.281 C63.994,95.254 64.151,95.092 64.358,95.599 C64.393,96.195 64.416,96.918 64.423,97.583 L64.301,96.716 z" fill="#FFFFFF"/>
              <path d="M64.301,96.716 L64.25,97.832 L64.133,96.963 L64.082,98.079 L63.966,97.211 L63.914,98.327 C63.872,97.836 63.839,97.094 63.848,96.281 C63.994,95.254 64.151,95.092 64.358,95.599 C64.393,96.195 64.416,96.918 64.423,97.583 L64.301,96.716 z" fill-opacity="0" stroke="#D7B900" stroke-width="0.857"/>
            </g>
            <g id="path679">
              <path d="M64.267,95.671 L64.215,96.787 L64.099,95.919 L64.047,97.035 L63.931,96.166 L63.88,97.282 C63.837,96.791 63.804,96.05 63.813,95.236 C63.96,94.209 64.116,94.047 64.323,94.554 C64.358,95.15 64.381,95.873 64.388,96.539 L64.267,95.671 z" fill="#FFFFFF"/>
              <path d="M64.267,95.671 L64.215,96.787 L64.099,95.919 L64.047,97.035 L63.931,96.166 L63.88,97.282 C63.837,96.791 63.804,96.05 63.813,95.236 C63.96,94.209 64.116,94.047 64.323,94.554 C64.358,95.15 64.381,95.873 64.388,96.539 L64.267,95.671 z" fill-opacity="0" stroke="#D7B900" stroke-width="0.857"/>
            </g>
          </g>
          <g id="path680">
            <path d="M63.854,103.157 C63.845,102.841 63.816,102.619 63.789,102.66 C63.762,102.701 63.748,102.991 63.757,103.307 C63.763,103.512 63.777,103.687 63.795,103.766 C63.814,103.846 63.832,103.817 63.844,103.692 C63.856,103.566 63.86,103.362 63.854,103.157 L63.805,103.232 z" fill="#FFFFFF"/>
            <path d="M63.854,103.157 C63.845,102.841 63.816,102.619 63.789,102.66 C63.762,102.701 63.748,102.991 63.757,103.307 C63.763,103.512 63.777,103.687 63.795,103.766 C63.814,103.846 63.832,103.817 63.844,103.692 C63.856,103.566 63.86,103.362 63.854,103.157 L63.805,103.232 z" fill-opacity="0" stroke="#D7B900" stroke-width="0.75"/>
          </g>
          <g id="path681">
            <path d="M64.368,102.793 C64.361,102.445 64.333,102.203 64.306,102.252 C64.278,102.301 64.262,102.623 64.268,102.972 C64.273,103.198 64.286,103.39 64.304,103.475 C64.321,103.561 64.34,103.527 64.354,103.386 C64.367,103.245 64.372,103.019 64.368,102.793 L64.318,102.883 z" fill="#FFFFFF"/>
            <path d="M64.368,102.793 C64.361,102.445 64.333,102.203 64.306,102.252 C64.278,102.301 64.262,102.623 64.268,102.972 C64.273,103.198 64.286,103.39 64.304,103.475 C64.321,103.561 64.34,103.527 64.354,103.386 C64.367,103.245 64.372,103.019 64.368,102.793 L64.318,102.883 z" fill-opacity="0" stroke="#D7B900" stroke-width="0.78"/>
          </g>
          <g id="path682">
            <path d="M64.868,102.434 C64.859,102.094 64.827,101.854 64.798,101.899 C64.769,101.943 64.754,102.255 64.764,102.596 C64.77,102.816 64.786,103.005 64.805,103.091 C64.825,103.176 64.845,103.145 64.858,103.01 C64.871,102.874 64.875,102.655 64.868,102.434 L64.816,102.515 z" fill="#FFFFFF"/>
            <path d="M64.868,102.434 C64.859,102.094 64.827,101.854 64.798,101.899 C64.769,101.943 64.754,102.255 64.764,102.596 C64.77,102.816 64.786,103.005 64.805,103.091 C64.825,103.176 64.845,103.145 64.858,103.01 C64.871,102.874 64.875,102.655 64.868,102.434 L64.816,102.515 z" fill-opacity="0" stroke="#D7B900" stroke-width="0.806"/>
          </g>
        </g>
        <g id="g711">
          <g id="path1706">
            <path d="M63.02,91.026 C63.02,95.855 63.258,95.416 63.734,97.171 C64.21,95.416 64.448,95.855 64.448,91.026 C64.21,91.026 63.972,91.026 63.734,90.587 C63.496,91.026 63.258,91.026 63.02,91.026 z" fill="#FFFFFF"/>
            <path d="M63.02,91.026 C63.02,95.855 63.258,95.416 63.734,97.171 C64.21,95.416 64.448,95.855 64.448,91.026 C64.21,91.026 63.972,91.026 63.734,90.587 C63.496,91.026 63.258,91.026 63.02,91.026 z" fill-opacity="0" stroke="#D7B900" stroke-width="1.189"/>
          </g>
          <path d="M63.069,91.2 C63.069,95.628 63.291,95.225 63.734,96.835 C64.177,95.225 64.398,95.628 64.398,91.2 C64.177,91.2 63.955,91.2 63.734,90.797 C63.512,91.2 63.291,91.2 63.069,91.2 z" fill="#D7B900" id="path707"/>
          <path d="M63.499,91.257 L63.499,95.871 L63.737,96.541 L63.976,95.871 L63.976,91.257 C63.891,91.206 63.809,91.114 63.738,91.008 C63.659,91.121 63.579,91.209 63.499,91.257 z" fill="#FFFFFF" id="path1709"/>
        </g>
      </g>
    </g>
  </g>
</svg>
