<?xml version="1.0" encoding="UTF-8"?>
<!DOCTYPE svg PUBLIC "-//W3C//DTD SVG 1.1//EN" "http://www.w3.org/Graphics/SVG/1.1/DTD/svg11.dtd">
<svg version="1.1" xmlns="http://www.w3.org/2000/svg" xmlns:xlink="http://www.w3.org/1999/xlink" x="0" y="0" width="20" height="64.677" viewBox="0, 0, 20, 64.677">
  <g  transform="translate(-54, -63.323)">
    <g id="gb">
      <path d="M57.82,63.323 L70.18,63.323 L74,113.184 L64,128 L54,113.184 L57.82,63.323 z" fill="#000066"/>
      <path d="M70.495,67.428 L71.383,79.018 L66.236,95.662 L72.391,115.567 L69.324,120.111 L64,102.893 L66.236,95.662 L64,88.431 L70.495,67.428 z" fill="#FFFFFF"/>
      <path d="M57.505,67.428 L64,88.431 L61.764,95.662 L64,102.893 L58.676,120.111 L55.609,115.567 L61.764,95.662 L56.617,79.018 L57.505,67.428 z" fill="#FFFFFF"/>
      <path d="M65.667,63.323 L65.667,84.882 L71.832,84.882 L73.483,106.441 L65.667,106.441 L65.667,125.531 L64,128 L62.333,125.531 L62.333,106.441 L54.517,106.441 L56.168,84.882 L62.333,84.882 L62.333,63.323 L65.667,63.323 z" fill="#FFFFFF"/>
      <path d="M65,63.323 L65,89.194 L72.162,89.194 L73.153,102.129 L65,102.129 L65,126.519 L64,128 L63,126.518 L63,102.129 L54.847,102.129 L55.838,89.194 L63,89.194 L63,63.323 L65,63.323 z" fill="#CC0000"/>
      <path d="M62.157,106.441 L58.164,119.354 L57.142,117.839 L60.667,106.441 L62.157,106.441 z" fill="#CC0000"/>
      <path d="M68.824,106.441 L71.88,116.325 L70.858,117.839 L67.333,106.441 L68.824,106.441 z" fill="#CC0000"/>
      <path d="M70.643,69.359 L70.939,73.223 L67.333,84.882 L65.843,84.882 L70.643,69.359 z" fill="#CC0000"/>
      <path d="M57.061,73.223 L60.667,84.882 L59.176,84.882 L56.765,77.087 L57.061,73.223 z" fill="#CC0000"/>
    </g>
  </g>
</svg>
