<?xml version="1.0" encoding="UTF-8"?>
<!DOCTYPE svg PUBLIC "-//W3C//DTD SVG 1.1//EN" "http://www.w3.org/Graphics/SVG/1.1/DTD/svg11.dtd">
<svg version="1.1" xmlns="http://www.w3.org/2000/svg" xmlns:xlink="http://www.w3.org/1999/xlink" x="0" y="0" width="20" height="64.677" viewBox="0, 0, 20, 64.677">
  <g  transform="translate(-54, -63.323)">
    <g id="kr">
      <path d="M70.18,63.323 L74,113.184 L64,128 L64,128 L54,113.184 L57.82,63.323 L70.18,63.323 z" fill="#FFFFFF"/>
      <path d="M61.092,81.425 C62.555,81.661 63.149,84.95 63.373,86.089 C63.993,89.239 64.139,92.459 64.174,95.661 C64.177,100.756 63.59,105.47 62.635,108.021 C61.681,110.573 60.504,110.573 59.549,108.021 C58.594,105.47 58.008,100.757 58.01,95.662 C58.01,87.799 59.39,81.425 61.092,81.425 z" fill="#FFFFFF"/>
      <path d="M64.061,77.915 C66.258,77.915 68.04,86.231 68.04,96.491 L64.061,96.491 L68.04,96.491 C68.042,103.133 67.284,109.274 66.052,112.598 C64.82,115.921 63.302,115.921 62.07,112.598 C60.838,109.274 60.08,103.133 60.082,96.491 C60.082,86.231 61.863,77.915 64.061,77.915 z" fill="#C70000"/>
      <path d="M58.213,67.022 L58.756,69.19 L56.464,81.435 L56.44,81.338 L57.067,73.142 L58.213,67.022 z" fill="#000000"/>
      <path d="M58.963,70.019 L59.506,72.188 L57.215,84.433 L56.672,82.265 L58.963,70.019 z" fill="#000000"/>
      <path d="M58.213,67.022 L58.756,69.19 L56.464,81.435 L56.44,81.338 L57.067,73.142 L58.213,67.022 z" fill="#000000"/>
      <path d="M58.213,67.022 L58.756,69.19 L56.464,81.435 L56.44,81.338 L57.067,73.142 L58.213,67.022 z" fill="#000000"/>
      <path d="M59.73,73.08 L60.273,75.249 L57.981,87.494 L57.438,85.326 L59.73,73.08 z" fill="#000000"/>
      <path d="M58.213,67.022 L58.756,69.19 L56.464,81.435 L56.441,81.342 L57.07,73.13 L58.213,67.022 z" fill="#000000"/>
      <path d="M58.213,67.022 L58.756,69.19 L56.464,81.435 L56.441,81.342 L57.07,73.13 L58.213,67.022 z" fill="#000000"/>
      <path d="M69.859,67.018 L70.89,72.606 L71.559,81.341 L69.313,69.17 L69.859,67.018 z" fill="#000000"/>
      <path d="M68.333,73.029 L70.606,85.346 L70.06,87.497 L67.787,75.181 L68.333,73.029 z" fill="#000000"/>
      <path d="M70.822,71.713 L71.044,74.61 L68.965,83.242 L68.712,80.122 L70.822,71.713 z" fill="#FFFFFF"/>
      <path d="M70.82,108.266 L71.36,110.341 L69.677,119.607 L68.765,120.959 L68.617,120.393 L70.82,108.266 z" fill="#000000"/>
      <path d="M69.104,69.992 L71.377,82.309 L70.831,84.46 L68.558,72.144 L69.104,69.992 z" fill="#000000"/>
      <path d="M71.566,111.135 L72.106,113.21 L71.411,117.038 L70.156,118.897 L71.566,111.135 z" fill="#000000"/>
      <path d="M70.058,105.337 L70.598,107.412 L68.395,119.538 L67.855,117.463 L70.058,105.337 z" fill="#000000"/>
      <path d="M66.027,88.484 C66.102,88.499 66.184,88.496 66.253,88.53 C66.807,88.806 67.065,89.854 67.222,90.389 C67.816,92.182 67.981,95.029 68.024,97.166 C67.976,104.03 67.123,109.972 66.029,112.622 C64.771,116.076 63.028,116.149 61.501,110.915 C60.813,107.932 59.852,102.434 60.14,93.217 C60.266,97.896 60.449,103.109 62.008,103.651 C62.592,103.812 63.729,103.009 64.119,95.655 C64.281,93.823 64.425,91.96 64.95,90.187 C65.134,89.566 65.361,88.732 66.027,88.484 z" fill="#3D5897"/>
      <path d="M69.215,110.162 L71.073,117.539 L70.37,118.581 L68.585,111.782 L69.215,110.162 z" fill="#FFFFFF"/>
      <path d="M57.223,108.467 L59.497,120.784 L59.393,121.192 L58.341,119.634 L56.677,110.618 L57.223,108.467 z" fill="#000000"/>
      <path d="M58.984,110.016 L59.385,112.161 L57.785,118.81 L57.051,117.722 L58.984,110.016 z" fill="#FFFFFF"/>
      <path d="M57.978,105.493 L60.252,117.81 L59.706,119.961 L57.432,107.645 L57.978,105.493 z" fill="#000000"/>
      <path d="M56.452,111.504 L57.802,118.817 L56.504,116.894 L55.906,113.656 L56.452,111.504 z" fill="#000000"/>
    </g>
  </g>
</svg>
