<?xml version="1.0" encoding="UTF-8"?>
<!DOCTYPE svg PUBLIC "-//W3C//DTD SVG 1.1//EN" "http://www.w3.org/Graphics/SVG/1.1/DTD/svg11.dtd">
<svg version="1.1" xmlns="http://www.w3.org/2000/svg" xmlns:xlink="http://www.w3.org/1999/xlink" x="0" y="0" width="20" height="64.677" viewBox="0, 0, 20, 64.677">
  <g  transform="translate(-54, -63.323)">
    <g id="us">
      <g>
        <path d="M70.18,63.323 L70.561,68.299 L57.439,68.299 L57.82,63.323 L70.18,63.323 z" fill="#BD3D44"/>
        <path d="M70.943,73.274 L71.324,78.249 L56.676,78.249 L57.057,73.274 L70.943,73.274 z" fill="#BD3D44"/>
        <path d="M71.705,83.224 L72.086,88.199 L55.914,88.199 L56.295,83.224 L71.705,83.224 z" fill="#BD3D44"/>
        <path d="M72.467,93.174 L72.848,98.149 L55.152,98.149 L55.533,93.174 L72.467,93.174 z" fill="#BD3D44"/>
        <path d="M73.229,103.124 L73.611,108.1 L54.39,108.1 L54.771,103.124 L73.229,103.124 z" fill="#BD3D44"/>
        <path d="M73.992,113.075 L74,113.184 L70.716,118.05 L57.284,118.05 L54,113.184 L54.008,113.075 L73.992,113.075 z" fill="#BD3D44"/>
        <path d="M67.358,123.025 L64,128 L64,128 L60.642,123.025 L67.358,123.025 z" fill="#BD3D44"/>
        <path d="M70.561,68.299 L70.943,73.274 L57.057,73.274 L57.439,68.299 L70.561,68.299 z" fill="#FFFFFF"/>
        <path d="M71.324,78.249 L71.705,83.224 L56.295,83.224 L56.676,78.249 L71.324,78.249 z" fill="#FFFFFF"/>
        <path d="M72.086,88.199 L72.467,93.174 L55.533,93.174 L55.914,88.199 L72.086,88.199 z" fill="#FFFFFF"/>
        <path d="M72.848,98.149 L73.229,103.124 L54.771,103.124 L55.152,98.149 L72.848,98.149 z" fill="#FFFFFF"/>
        <path d="M73.611,108.1 L73.992,113.075 L54.008,113.075 L54.39,108.1 L73.611,108.1 z" fill="#FFFFFF"/>
        <path d="M70.716,118.05 L67.358,123.025 L60.642,123.025 L57.284,118.05 L70.716,118.05 z" fill="#FFFFFF"/>
      </g>
      <g>
        <path d="M62,63.323 L62,98.149 L55.152,98.149 L57.82,63.323 L62,63.323 z" fill="#192F5D"/>
        <g>
          <path d="M57.485,67.607 L57.524,68.337 L57.454,68.022 L57.485,67.607 z" fill="#FFFFFF"/>
          <path d="M57.6,66.19 L57.642,66.19 L57.578,66.473 L57.6,66.19 z" fill="#FFFFFF"/>
          <path d="M58.667,64.814 L58.739,66.19 L58.975,66.19 L58.784,67.041 L58.857,68.418 L58.667,67.567 L58.476,68.418 L58.549,67.041 L58.358,66.19 L58.594,66.19 L58.667,64.814 z" fill="#FFFFFF"/>
          <path d="M60,64.814 L60.073,66.19 L60.308,66.19 L60.118,67.041 L60.191,68.418 L60,67.567 L59.809,68.418 L59.882,67.041 L59.692,66.19 L59.927,66.19 L60,64.814 z" fill="#FFFFFF"/>
          <path d="M61.333,64.814 L61.406,66.19 L61.642,66.19 L61.451,67.041 L61.524,68.418 L61.333,67.567 L61.143,68.418 L61.216,67.041 L61.025,66.19 L61.261,66.19 L61.333,64.814 z" fill="#FFFFFF"/>
          <path d="M58,68.297 L58.073,69.673 L58.308,69.673 L58.118,70.524 L58.191,71.9 L58,71.049 L57.809,71.9 L57.882,70.524 L57.692,69.673 L57.927,69.673 L58,68.297 z" fill="#FFFFFF"/>
          <path d="M59.333,68.297 L59.406,69.673 L59.642,69.673 L59.451,70.524 L59.524,71.9 L59.333,71.049 L59.143,71.9 L59.216,70.524 L59.025,69.673 L59.261,69.673 L59.333,68.297 z" fill="#FFFFFF"/>
          <path d="M60.667,68.297 L60.739,69.673 L60.975,69.673 L60.784,70.524 L60.857,71.9 L60.667,71.049 L60.476,71.9 L60.549,70.524 L60.358,69.673 L60.594,69.673 L60.667,68.297 z" fill="#FFFFFF"/>
          <path d="M57.333,71.779 L57.406,73.156 L57.642,73.156 L57.451,74.006 L57.524,75.383 L57.333,74.532 L57.143,75.383 L57.216,74.006 L57.056,73.294 L57.066,73.156 L57.261,73.156 L57.333,71.779 z" fill="#FFFFFF"/>
          <path d="M58.667,71.779 L58.739,73.156 L58.975,73.156 L58.784,74.006 L58.857,75.383 L58.667,74.532 L58.476,75.383 L58.549,74.006 L58.358,73.156 L58.594,73.156 L58.667,71.779 z" fill="#FFFFFF"/>
          <path d="M60,71.779 L60.073,73.156 L60.308,73.156 L60.118,74.006 L60.191,75.383 L60,74.532 L59.809,75.383 L59.882,74.006 L59.692,73.156 L59.927,73.156 L60,71.779 z" fill="#FFFFFF"/>
          <path d="M61.333,71.779 L61.406,73.156 L61.642,73.156 L61.451,74.006 L61.524,75.383 L61.333,74.532 L61.143,75.383 L61.216,74.006 L61.025,73.156 L61.261,73.156 L61.333,71.779 z" fill="#FFFFFF"/>
          <path d="M56.8,76.638 L56.975,76.638 L56.784,77.489 L56.857,78.865 L56.687,78.106 L56.8,76.638 z" fill="#FFFFFF"/>
          <path d="M58,75.262 L58.073,76.638 L58.308,76.638 L58.118,77.489 L58.191,78.865 L58,78.015 L57.809,78.865 L57.882,77.489 L57.692,76.638 L57.927,76.638 L58,75.262 z" fill="#FFFFFF"/>
          <path d="M59.333,75.262 L59.406,76.638 L59.642,76.638 L59.451,77.489 L59.524,78.865 L59.333,78.015 L59.143,78.865 L59.216,77.489 L59.025,76.638 L59.261,76.638 L59.333,75.262 z" fill="#FFFFFF"/>
          <path d="M60.667,75.262 L60.739,76.638 L60.975,76.638 L60.784,77.489 L60.857,78.865 L60.667,78.015 L60.476,78.865 L60.549,77.489 L60.358,76.638 L60.594,76.638 L60.667,75.262 z" fill="#FFFFFF"/>
          <path d="M57.333,78.744 L57.406,80.121 L57.642,80.121 L57.451,80.972 L57.524,82.348 L57.333,81.497 L57.143,82.348 L57.216,80.972 L57.025,80.121 L57.261,80.121 L57.333,78.744 z" fill="#FFFFFF"/>
          <path d="M58.667,78.744 L58.739,80.121 L58.975,80.121 L58.784,80.972 L58.857,82.348 L58.667,81.497 L58.476,82.348 L58.549,80.972 L58.358,80.121 L58.594,80.121 L58.667,78.744 z" fill="#FFFFFF"/>
          <path d="M60,78.744 L60.073,80.121 L60.308,80.121 L60.118,80.972 L60.191,82.348 L60,81.497 L59.809,82.348 L59.882,80.972 L59.692,80.121 L59.927,80.121 L60,78.744 z" fill="#FFFFFF"/>
          <path d="M61.333,78.744 L61.406,80.121 L61.642,80.121 L61.451,80.972 L61.524,82.348 L61.333,81.497 L61.143,82.348 L61.216,80.972 L61.025,80.121 L61.261,80.121 L61.333,78.744 z" fill="#FFFFFF"/>
          <path d="M56.667,82.227 L56.739,83.603 L56.975,83.603 L56.784,84.454 L56.857,85.831 L56.667,84.98 L56.476,85.831 L56.549,84.454 L56.358,83.603 L56.594,83.603 L56.667,82.227 z" fill="#FFFFFF"/>
          <path d="M58,82.227 L58.073,83.603 L58.308,83.603 L58.118,84.454 L58.191,85.831 L58,84.98 L57.809,85.831 L57.882,84.454 L57.692,83.603 L57.927,83.603 L58,82.227 z" fill="#FFFFFF"/>
          <path d="M59.333,82.227 L59.406,83.603 L59.642,83.603 L59.451,84.454 L59.524,85.831 L59.333,84.98 L59.143,85.831 L59.216,84.454 L59.025,83.603 L59.261,83.603 L59.333,82.227 z" fill="#FFFFFF"/>
          <path d="M60.667,82.227 L60.739,83.603 L60.975,83.603 L60.784,84.454 L60.857,85.831 L60.667,84.98 L60.476,85.831 L60.549,84.454 L60.358,83.603 L60.594,83.603 L60.667,82.227 z" fill="#FFFFFF"/>
          <path d="M56.043,86.518 L56.073,87.086 L56.308,87.086 L56.118,87.937 L56.191,89.313 L56,88.462 L55.839,89.183 L56.043,86.518 z" fill="#FFFFFF"/>
          <path d="M57.333,85.71 L57.406,87.086 L57.642,87.086 L57.451,87.937 L57.524,89.313 L57.333,88.462 L57.143,89.313 L57.216,87.937 L57.025,87.086 L57.261,87.086 L57.333,85.71 z" fill="#FFFFFF"/>
          <path d="M58.667,85.71 L58.739,87.086 L58.975,87.086 L58.784,87.937 L58.857,89.313 L58.667,88.462 L58.476,89.313 L58.549,87.937 L58.358,87.086 L58.594,87.086 L58.667,85.71 z" fill="#FFFFFF"/>
          <path d="M60,85.71 L60.073,87.086 L60.308,87.086 L60.118,87.937 L60.191,89.313 L60,88.462 L59.809,89.313 L59.882,87.937 L59.692,87.086 L59.927,87.086 L60,85.71 z" fill="#FFFFFF"/>
          <path d="M61.333,85.71 L61.406,87.086 L61.642,87.086 L61.451,87.937 L61.524,89.313 L61.333,88.462 L61.143,89.313 L61.216,87.937 L61.025,87.086 L61.261,87.086 L61.333,85.71 z" fill="#FFFFFF"/>
          <path d="M56.667,89.192 L56.739,90.569 L56.975,90.569 L56.784,91.419 L56.857,92.796 L56.667,91.945 L56.476,92.796 L56.549,91.419 L56.358,90.569 L56.594,90.569 L56.667,89.192 z" fill="#FFFFFF"/>
          <path d="M58,89.192 L58.073,90.569 L58.308,90.569 L58.118,91.419 L58.191,92.796 L58,91.945 L57.809,92.796 L57.882,91.419 L57.692,90.569 L57.927,90.569 L58,89.192 z" fill="#FFFFFF"/>
          <path d="M59.333,89.192 L59.406,90.569 L59.642,90.569 L59.451,91.419 L59.524,92.796 L59.333,91.945 L59.143,92.796 L59.216,91.419 L59.025,90.569 L59.261,90.569 L59.333,89.192 z" fill="#FFFFFF"/>
          <path d="M60.667,89.192 L60.739,90.569 L60.975,90.569 L60.784,91.419 L60.857,92.796 L60.667,91.945 L60.476,92.796 L60.549,91.419 L60.358,90.569 L60.594,90.569 L60.667,89.192 z" fill="#FFFFFF"/>
          <path d="M56,92.675 L56.073,94.051 L56.308,94.051 L56.118,94.902 L56.191,96.278 L56,95.428 L55.809,96.278 L55.882,94.902 L55.692,94.051 L55.927,94.051 L56,92.675 z" fill="#FFFFFF"/>
          <path d="M57.333,92.675 L57.406,94.051 L57.642,94.051 L57.451,94.902 L57.524,96.278 L57.333,95.428 L57.143,96.278 L57.216,94.902 L57.025,94.051 L57.261,94.051 L57.333,92.675 z" fill="#FFFFFF"/>
          <path d="M58.667,92.675 L58.739,94.051 L58.975,94.051 L58.784,94.902 L58.857,96.278 L58.667,95.428 L58.476,96.278 L58.549,94.902 L58.358,94.051 L58.594,94.051 L58.667,92.675 z" fill="#FFFFFF"/>
          <path d="M60,92.675 L60.073,94.051 L60.308,94.051 L60.118,94.902 L60.191,96.278 L60,95.428 L59.809,96.278 L59.882,94.902 L59.692,94.051 L59.927,94.051 L60,92.675 z" fill="#FFFFFF"/>
          <path d="M61.333,92.675 L61.406,94.051 L61.642,94.051 L61.451,94.902 L61.524,96.278 L61.333,95.428 L61.143,96.278 L61.216,94.902 L61.025,94.051 L61.261,94.051 L61.333,92.675 z" fill="#FFFFFF"/>
        </g>
      </g>
    </g>
  </g>
</svg>
